<?xml version="1.0" encoding="utf-8"?>
<!-- Generator: Adobe Illustrator 23.0.1, SVG Export Plug-In . SVG Version: 6.00 Build 0)  -->
<svg version="1.1" id="Layer_1" xmlns="http://www.w3.org/2000/svg" xmlns:xlink="http://www.w3.org/1999/xlink" x="0px" y="0px"
	 viewBox="0 0 1116.38 811" style="enable-background:new 0 0 1116.38 811;" xml:space="preserve">
<style type="text/css">
	.st0{fill:#FFFFFF;}
</style>
<g>
	<path d="M239.71,482.28c-0.53,4.2-0.77,8.47-1.66,12.59c-0.87,4.03-2.28,7.97-3.73,11.85c-0.38,1.02-1.79,2.33-2.7,2.31
		c-0.93-0.02-2.27-1.33-2.69-2.37c-7.66-19.08-15.06-38.26-22.88-57.27c-2.19-5.32-5.7-10.09-8.31-15.26
		c-0.72-1.43-0.37-3.39-0.51-5.11c1.58,0.85,3.99,1.31,4.62,2.62c5.21,10.92,10.26,21.93,15.03,33.05
		c3.66,8.55,6.72,17.35,10.35,25.92c0.7,1.64,2.81,2.68,5.41,5.03c0.58-8.02,1.31-14.38,1.42-20.76c0.09-4.97-0.72-9.94-0.84-14.92
		c-0.03-1.37,0.96-2.77,1.48-4.16c1.25,0.87,3.14,1.46,3.66,2.65c4.39,10.03,8.47,20.2,12.81,30.25c0.99,2.3,2.64,4.31,4.86,6.06
		c2.13-23.84,0.11-47.02-6.02-69.91c0.7-0.19,1.41-0.38,2.11-0.56c0.64,0.91,1.55,1.74,1.86,2.76c4.53,14.79,9.02,29.58,8.71,45.31
		c-0.2,10.14-0.13,20.28-0.29,30.42c-0.03,2.15-0.16,4.42-0.89,6.4c-0.52,1.42-2.14,3.42-3.22,3.39c-1.3-0.03-3.12-1.69-3.74-3.08
		c-3.44-7.72-6.5-15.62-9.91-23.36c-0.75-1.7-2.41-3-3.65-4.48C240.56,481.86,240.14,482.07,239.71,482.28z"/>
	<path d="M529.59,96.07c2.36,0.88,4.72,1.76,7.65,2.86c0-3.68-0.24-6.64,0.06-9.56c0.41-4.1,2.24-5.11,5.55-2.74
		c3.34,2.38,6.25,5.39,9.15,8.33c0.52,0.53,0.06,2.04,0.05,3.1c-1.03-0.03-2.28,0.31-3.06-0.15c-2.22-1.31-4.25-2.94-7.05-4.94
		c-1.81,7.36-1.55,13.88-0.09,20.32c1.18,5.23,1.57,10.24-1.78,14.77c-0.88,1.2-2.43,1.91-3.67,2.84c-0.8-1.14-1.96-2.17-2.36-3.43
		c-2.28-7.32-5.55-9.61-13-8.46c-0.9,0.14-1.59,1.63-2.39,2.5c-2.98,3.23-5.46,7.27-9.05,9.5c-6.87,4.27-13.97,0.63-15.87-7.32
		c-1.95-8.22-1.53-7.46-8.57-3.55c-5.44,3.02-12.02,4.74-18.25,5.35c-5.79,0.56-7.62-3.04-6.47-8.86
		c1.68-8.53,5.24-16.1,11.95-21.64c1.51-1.25,5.76-1.29,7.25-0.06c4.19,3.46,7.65,7.83,11.3,11.92c1.1,1.23,1.88,2.74,2.99,4.39
		c6.69-10.04,12.4-12.1,20.08-6.55c-2.9,0.68-4.97,1.55-7.05,1.59c-5.24,0.09-7.83,3.06-9.12,7.66c-1.36,4.83-0.85,9.37,3.15,12.75
		c1.21,1.02,3.48,1.62,5.02,1.29c6.26-1.32,11.56-10.85,10.09-17.27c-0.74-3.21-1.31-6.5-1.52-9.78c-0.07-1.16,1.16-2.41,1.8-3.62
		c0.95,0.99,2.36,1.83,2.74,3c0.93,2.83,1.2,5.87,2.1,8.71c0.57,1.8,1.4,4.03,2.84,4.94c3.42,2.16,7.25,3.65,11.11,5.5
		c2.54-8.88-1.32-15.95-6.81-22.61C528.79,96.58,529.19,96.33,529.59,96.07z M473.42,102.12c-0.34,0.18-2.6,0.65-3.52,2.02
		c-1.72,2.56-2.87,5.58-3.86,8.54c-0.67,2-1.53,5.58-0.75,6.11c1.99,1.33,5.1,2.25,7.34,1.67c4.42-1.14,8.59-3.33,12.78-5.27
		c0.59-0.27,1.05-1.64,0.95-2.42C485.64,106.91,480.93,102.57,473.42,102.12z"/>
	<path d="M532.03,246.87c-1.57-3.67-3.14-7.34-5.08-11.9c-1.39,1.66-2.47,2.72-3.28,3.96c-3.53,5.39-8.67,6.48-13.93,2.62
		c-2.55-1.87-4.13-1.59-5.39,1.28c-2.01,4.58-5.78,6.15-10.52,6.01c-4.67-0.14-7.23-3.15-8.82-6.97
		c-3.61-8.66-3.04-17.27,1.34-25.51c1.72-3.24,4.26-5.73,8.5-4.11c4.6,1.77,6.97,6.12,6.22,11.26c-0.63,4.37-3.46,6.31-7.56,6.51
		c-1.93,0.1-3.89-0.39-5.81-0.61c-1.63,7.36,2.42,14.89,8.01,14.99c1.25,0.02,2.93-0.16,3.69-0.95c4.03-4.18,9.09-7.34,10.39-13.94
		c1.45-7.37,5.54-10.1,13.81-10.66c-0.23-3.7-0.32-7.45-0.73-11.16c-1.26-11.56-2.82-23.1-3.86-34.68
		c-0.38-4.26,0.22-8.63,0.71-12.92c0.1-0.91,1.68-2.28,2.58-2.29c0.89,0,2.35,1.34,2.57,2.31c2.28,9.83,4.82,19.64,6.33,29.6
		c0.93,6.16,0.15,12.56,0.28,18.86c0.08,3.87,0.42,7.74,0.66,11.61c0.03,0.49,0.42,1.12,0.23,1.44c-4.44,7.26,0.35,13.81,1.51,20.63
		c0.21,1.24,0.15,2.53,0.21,3.8C533.4,246.33,532.71,246.6,532.03,246.87z M512.74,234.98c0.33,0.42,1.25,2.74,2.85,3.39
		c2.82,1.14,4.4-0.73,5.25-3.6c0.79-2.67,2.27-5.14,3.36-7.73c1.46-3.47-0.21-4.61-3.45-4.38
		C516.38,222.98,512.95,227.52,512.74,234.98z M499,221.28c-2.92-2.38-4.59-3.74-6.25-5.11c-1.37,1.74-2.75,3.47-4.12,5.21
		c1.68,1.21,3.22,2.93,5.09,3.41C494.72,225.05,496.28,223.18,499,221.28z M527.01,185.84c-1,0.14-1.99,0.28-2.99,0.43
		c0.49,4.45,0.97,8.9,1.46,13.36c0.95-0.11,1.9-0.21,2.84-0.32C527.89,194.81,527.45,190.32,527.01,185.84z"/>
	<path d="M990,532.16c-2.2-2.26-4.8-4.26-6.49-6.85c-2.42-3.69-4.03-6.48-9.03-2.64c-4.01,3.08-9.01,1.05-11.65-3.45
		c-0.42-0.71-0.86-1.41-1.37-2.05c-0.18-0.23-0.57-0.29-1.16-0.57c-1.8,1.68-3.64,3.5-5.59,5.18c-3.74,3.23-8.44,3.67-12.01,1.03
		c-2.49-1.84-4.59-6.02-4.51-9.1c0.14-5.3,1.67-10.73,3.55-15.75c0.79-2.12,3.76-3.94,6.13-4.71c0.99-0.33,4.13,2.29,4.28,3.77
		c0.28,2.86-0.52,5.99-1.59,8.73c-0.45,1.15-2.64,1.97-4.18,2.28c-3.57,0.72-4.76,2.8-4.04,6.1c0.79,3.63,3.64,6.32,6.79,4.67
		c4.79-2.52,8.87-6.44,13.08-9.97c2.11-1.77,3.53-4.49,5.81-5.88c3.91-2.39,4.74-5.17,3.87-9.59c-2.35-11.89-4.33-23.86-6.08-35.85
		c-0.27-1.89,1.3-5.72,2.26-5.8c3.55-0.31,3.5,2.83,3.89,5.58c0.61,4.26,1.44,8.53,2.68,12.64c3.91,13.05,7.42,26.09,8.59,39.8
		c0.48,5.69,3.81,11.15,6,16.66c0.57,1.44,1.71,2.64,2.59,3.96C991.21,530.96,990.6,531.56,990,532.16z M978.24,512.14
		c-2.16-2.87-3.55-6.51-5.34-6.72c-3.77-0.43-5.4,3.54-5.02,6.47c0.31,2.39,3,4.47,4.64,6.69
		C974.2,516.69,975.88,514.79,978.24,512.14z"/>
	<path d="M213.36,769.04c-3.3-3.2-6.61-6.4-10.67-10.33c-0.66,2.55-1.15,4.05-1.43,5.6c-1.96,10.64-10.12,14.46-19.51,9.32
		c-1.9-1.04-4.4-1.4-6.62-1.37c-7.27,0.11-12.61-2.99-15.65-9.43c-2.95-6.26-2.72-12.73,1.4-18.44c1.22-1.68,3.87-2.93,5.98-3.12
		c1.14-0.1,3.58,2.46,3.56,3.79c-0.04,2.55-0.98,5.36-2.38,7.53c-1.37,2.14-3.77,3.63-5.71,5.4c2.48,2.72,4.62,5.91,7.56,7.99
		c2.19,1.55,5.41,1.63,8.86,2.56c-0.32-8.8,1.87-15.21,10.02-17.94c2.91-0.98,5.7-1.63,8.78,1.89c-2.53,1.13-4.66,1.82-6.51,2.97
		c-2.45,1.53-5.28,2.99-6.88,5.24c-2.56,3.61-1.37,7.47,1.9,8.82c4.3,1.78,8.08,0.15,9.74-3.93c3.53-8.68,2.98-17.02-0.89-25.54
		c-6.53-14.39-12.69-28.94-18.86-43.49c-0.52-1.23,0.07-2.94,0.14-4.42c1.69,0.95,4.32,1.49,4.93,2.91
		c7.48,17.22,14.49,34.65,22,51.86c2.64,6.04,6.32,11.62,9.55,17.39c0.66,1.18,1.42,2.31,2.13,3.46
		C214.33,768.17,213.85,768.6,213.36,769.04z"/>
	<path d="M651.08,369.21c0.5-2.01,1.34-4,1.44-6.03c0.29-5.98,0.18-11.97,0.49-17.95c0.07-1.39,1.15-2.74,1.77-4.1
		c1.15,1.1,2.85,2,3.35,3.34c2.85,7.62,5.33,15.38,8.17,23c0.49,1.32,2.13,2.21,3.24,3.3c0.7-1.3,1.77-2.52,2.06-3.91
		c2.69-12.94,0.44-25.37-3.58-37.76c-1.94-5.97-2.8-12.31-3.91-18.52c-0.17-0.97,0.94-2.17,1.46-3.27c0.99,0.64,2.75,1.16,2.86,1.93
		c2.89,19.24,12.31,37.6,8.22,57.75c-1.05,5.16-3.2,10.11-5.03,15.08c-0.25,0.67-1.81,1.53-2.31,1.31c-1.05-0.49-2.21-1.48-2.6-2.53
		c-2.09-5.57-3.88-11.26-5.97-16.84c-0.46-1.23-1.72-2.15-2.61-3.21c-0.7,1.31-1.83,2.55-2.03,3.94c-0.8,5.59-1.14,11.26-2.06,16.83
		c-0.22,1.36-2.01,2.45-3.08,3.67c-0.87-1.23-2.07-2.34-2.54-3.71c-1.3-3.74-2.27-7.59-3.4-11.39c-4.8-16.25-9.59-32.5-14.44-48.73
		c-0.71-2.38-1.94-4.61-2.53-7c-0.25-0.99,0.56-2.25,0.89-3.38c1.18,0.61,2.66,0.97,3.47,1.91c0.81,0.93,1.02,2.42,1.38,3.7
		c4.54,16.16,9.05,32.32,13.63,48.47c0.42,1.48,1.28,2.83,1.94,4.25C649.92,369.3,650.5,369.25,651.08,369.21z"/>
	<path d="M714.25,752.73c-2.93-10.38-10.65-17.05-19.14-18.25c-1.4-0.2-2.57-2.04-3.85-3.12c1.35-0.97,2.63-2.68,4.04-2.79
		c8.57-0.65,17.57,5.64,20.91,14.09c1.13,2.87,2.57,5.62,3.31,7.21c5.59-2.89,9.79-5.69,14.4-7.29c6.38-2.22,6.51-1.84,7.4-10.82
		c1.96,1.64,3.9,2.49,4.51,3.92c2.97,6.98,5.62,14.09,8.29,21.2c0.54,1.43,0.67,3.02,0.99,4.53c-0.46,0.29-0.91,0.58-1.37,0.88
		c-2.66-2.85-5.33-5.71-8.53-9.13c-1.02,2.69-1.73,4.82-2.61,6.87c-3.44,8.02-11.81,11.53-17.47,6.92
		c-2.11-1.71-2.87-5.01-4.48-7.43c-0.91-1.36-2.11-3.07-3.5-3.46c-5.34-1.51-10.8-2.56-16.23-3.74c-0.77-0.17-1.59-0.13-3.48-0.26
		c0.88,6.57,1.69,12.73,2.55,18.89c0.18,1.31,0.78,2.6,0.77,3.9c-0.01,1.24-0.55,2.47-0.86,3.71c-1.12-0.81-2.92-1.42-3.25-2.48
		c-1.12-3.63-1.86-7.39-2.49-11.15c-0.44-2.61-0.07-5.4-0.77-7.92c-0.79-2.88-2.03-5.78-3.7-8.25c-1.52-2.24-2.93-3.5,0.58-5.28
		c1.29-0.65,1.4-3.38,2.39-4.94c0.6-0.95,1.81-1.85,2.87-2.02c0.52-0.09,1.72,1.44,1.92,2.38c0.55,2.65-0.19,6.96,1.23,7.79
		C703.1,749.26,708.29,750.54,714.25,752.73z M741.41,745.96c-6-0.12-13.13,2.41-15.79,5.66c-2.67,3.28-2.05,6.85,0.49,9.45
		c1.52,1.55,4.85,2.77,6.77,2.18C737.03,761.98,742.04,750.75,741.41,745.96z"/>
	<path d="M934.97,753.42c0.28,0.87,0.31,1.99,0.88,2.59c6.37,6.61,4.84,14.44,3.18,22.07c-1.43,6.55-5.03,9.46-10.45,9.65
		c-4.27,0.14-9.78-3.59-11.21-8.57c-1.41-4.91-2.09-10.06-2.73-15.15c-0.88-7.04,3.6-11.33,8.99-14.2c2.11-1.13,5.54,0.2,9.07,0.47
		c0.31-0.44,1.15-1.61,2.19-3.08c1.99,1.13,3.92,2.23,5.86,3.32c0.35-0.21,0.7-0.42,1.05-0.62c-1.75-4.36-4.02-8.59-5.15-13.11
		c-2.52-10.08-4.62-20.27-6.51-30.48c-0.32-1.71,0.95-5.08,2.1-5.39c1.78-0.48,4.8,0.39,6.05,1.8c4.96,5.56,9.51,11.5,14.06,17.42
		c1.87,2.43,3.37,5.15,5.04,7.74c-0.35,0.37-0.69,0.74-1.04,1.11c-1.38-1.05-3.01-1.88-4.09-3.18c-4.66-5.63-9.12-11.43-13.74-17.1
		c-1.26-1.55-2.83-2.85-4.25-4.27c-0.54,0.24-1.07,0.47-1.61,0.71c0.5,4.13,0.4,8.45,1.62,12.35c3.41,10.94,7.14,21.8,11.33,32.46
		c0.76,1.93,4.16,3.23,6.6,3.97c2.13,0.64,4.65-0.14,6.94,0.13c1.03,0.12,1.94,1.27,2.91,1.95c-0.93,1.01-1.72,2.69-2.81,2.91
		c-2.69,0.54-5.51,0.41-9.23,0.59c2.08,4.38,3.85,8.01,5.52,11.67c1.1,2.42,2.34,4.84,2.95,7.39c0.28,1.18-0.78,2.69-1.23,4.05
		c-1.06-0.8-2.62-1.39-3.09-2.45c-2.33-5.31-4.59-10.68-6.47-16.17C945.65,758.04,940.51,755.76,934.97,753.42z M936.27,771.85
		c0-2.05,0.14-2.75-0.02-3.37c-0.7-2.71-1.09-5.63-2.46-7.96c-0.5-0.85-3.42-0.16-5.19-0.46c-1.1-0.19-2.15-0.85-3.15-1.42
		c-4.08-2.3-6.51-1.56-7.02,2.86c-0.76,6.53-0.07,13.11,3.83,18.6c1.3,1.84,4.51,3.48,6.64,3.25c2.02-0.22,4.33-2.68,5.48-4.73
		C935.71,776.27,935.91,773.29,936.27,771.85z"/>
	<path d="M836.6,111.11c-1.13,0.1-1.39,0.06-1.44,0.14c-4.87,8.18-12.35,5.65-19.14,4.13c-2.6-0.58-5.54-3.09-6.78-5.52
		c-1.8-3.51-3.22-3.08-5.6-1.13c-6.5,5.33-9.16,4.47-11.76-3.71c-1.41-4.43-3.08-8.79-4.22-13.28c-0.35-1.37,0.66-3.09,1.05-4.65
		c1.57,0.86,3.99,1.36,4.55,2.66c1.69,3.95,2.45,8.28,4.01,12.3c0.67,1.72,2.39,3.04,4.43,5.5c1.66-6.02,2.77-10.64,4.28-15.13
		c0.48-1.42,2.03-2.47,3.09-3.7c1.08,1.37,2.82,2.62,3.1,4.14c0.65,3.58,0.55,7.29,0.87,10.93c0.15,1.64,0.19,3.49,1,4.8
		c0.86,1.39,2.58,2.25,3.92,3.33c0.79-1.33,2.07-2.58,2.29-4c0.91-5.89,1.12-11.83,5.58-16.67c3.18-3.45,6.7-3.51,10.43-2.14
		c3.77,1.39,4.26,4.45,4.42,8.41c0.28,6.88,1.67,13.75,2.98,20.55c1.47,7.66,4.15,15.24-1.96,22.27c-4.9,5.64-11.41,7.74-18.38,8.94
		c-1.03,0.18-2.22-0.66-3.34-1.02c-0.01-0.45-0.02-0.9-0.03-1.36c1.44-0.47,2.86-1,4.33-1.39c14.03-3.67,18.71-12.11,14.41-25.85
		C837.82,116.93,837.3,114.05,836.6,111.11z M823.98,105.91c0.29,0.13,0.57,0.26,0.86,0.39c0,0.5-0.13,1.04,0.02,1.48
		c0.56,1.58,1.22,3.12,1.85,4.68c1.25-0.88,3.13-1.49,3.65-2.69c1.82-4.21,3.42-8.56,4.51-13c0.26-1.04-1.59-2.96-2.9-3.84
		c-0.5-0.33-2.77,0.86-3.26,1.84C826.91,98.37,825.52,102.18,823.98,105.91z"/>
	<path d="M314.06,333.24c-1.16-5-2.44-9.47-3.11-14.02c-0.28-1.87,0.78-3.94,1.23-5.93c1.59,1.15,4.05,1.95,4.65,3.49
		c5.73,14.53,11.17,29.17,16.65,43.8c1.8,4.82,3.46,9.68,5.19,14.53c0.46,1.29,0.91,2.59,1.36,3.88c-0.42,0.3-0.84,0.6-1.26,0.9
		c-1.14-1.08-2.76-1.95-3.33-3.28c-3.33-7.79-6.48-15.65-9.54-23.54c-1.86-4.8-3.38-9.74-5.21-14.55c-1.18-3.09-4.2-3.59-5.96-0.76
		c-2.53,4.06-5.17,2.56-7.18,0.21c-2.23-2.6-3.61-5.92-5.5-8.84c-0.88-1.35-2.08-2.49-3.14-3.72c-0.59,1.68-1.84,3.44-1.66,5.04
		c1.27,10.9,2.82,21.77,4.34,32.63c0.53,3.79,1.46,7.54,1.7,11.34c0.09,1.41-1.28,2.91-1.99,4.37c-1.03-1.17-2.76-2.21-2.99-3.52
		c-3.75-21.04-4.96-42.3-4.89-63.64c0-1.47,0.91-2.94,1.4-4.41c1.25,0.88,3.06,1.49,3.64,2.69c2.82,5.8,5.39,11.73,7.89,17.67
		C308.3,332.17,308.94,332.83,314.06,333.24z"/>
	<path d="M615.77,126.12c-3.51,1.99-5.66,3.55-8.06,4.48c-3.24,1.25-7.32,3.58-9.82,2.53c-2.47-1.03-3.74-5.57-4.95-8.79
		c-0.66-1.75-0.15-3.95-0.11-5.94c0.12-6.56,2.1-8.77,8.68-9.81c0.8-0.13,1.59-0.32,2.76-0.55c-0.1-1.4-0.08-2.68-0.29-3.92
		c-3.35-19.09-6.8-38.17-9.98-57.29c-0.27-1.62,1.22-3.53,1.89-5.3c1.45,1.53,3.72,2.84,4.2,4.64c2.65,9.75,3.97,19.94,7.44,29.36
		c4.02,10.94,5.4,22.14,6.62,33.49c0.23,2.12-0.42,4.33-0.2,6.45c0.33,3.15,1.1,6.25,1.66,9.37
		C615.76,125.74,615.85,126.66,615.77,126.12z M607.58,120.44c0.04-5.49-2.67-7.11-6-7.4c-3.56-0.31-3.51,2.73-3.7,5.21
		c-0.17,2.14-0.69,4.4-0.21,6.4c0.35,1.44,1.88,3,3.28,3.64c0.81,0.37,2.9-0.64,3.54-1.61
		C605.99,124.38,606.96,121.74,607.58,120.44z M604.87,92.63c4.89-2.76,4.68-6.75,0-12.74C604.87,84.21,604.87,88.03,604.87,92.63z"
		/>
	<path d="M360.85,635.96c-1.35-0.82-3.11-1.35-3.97-2.53c-2.03-2.8-3.59-5.93-5.43-8.88c-0.74-1.18-1.72-2.21-2.59-3.3
		c-1,0.95-2.24,1.74-2.97,2.86c-2.68,4.11-5.94,7.05-11.22,7.11c-4.1,0.04-7.18-1.65-8.93-5.2c-2.26-4.59-4.99-9.39-2.08-14.59
		c0.76-1.37,3.27-2.78,4.71-2.55c3.53,0.58,7.04,1.83,10.26,3.42c1.06,0.52,1.21,2.91,1.77,4.44c-1.5,0.06-3.15,0.57-4.46,0.1
		c-2.67-0.95-5.16-2.42-7.9-3.76c-1.33,5.6,0.45,10.06,4.13,11.78c4.01,1.88,7.41,0.69,10.44-3.99c2.77-4.27,3.44-8.51,1.04-13.58
		c-7.01-14.84-13.59-29.89-20.12-44.95c-0.71-1.64-0.02-3.88,0.02-5.85c1.69,1.13,4.03,1.88,4.97,3.45
		c5.09,8.52,10.39,17,14.52,25.99c2.93,6.37,3.74,13.68,6.19,20.32c2.91,7.88,6.52,15.5,9.92,23.2c0.77,1.75,1.94,3.33,2.92,4.98
		C361.66,634.96,361.25,635.46,360.85,635.96z"/>
	<path d="M705.17,629.38c-3.33-8.59-6.91-17.09-9.94-25.79c-3.32-9.53-6.19-19.23-9.07-28.91c-0.26-0.88,0.82-2.17,1.28-3.27
		c1.37,0.67,3.54,0.99,3.99,2.05c6.61,15.51,15.68,30.04,18.8,46.95c1.03,5.61,2.17,11.2,3.31,17.04c-0.83,0-2.34,0-3.76,0
		c-5.05,10.57-8.62,13.27-14.44,11.08c-4.99-1.88-7.89-10.62-5.06-18.08c0.81-2.14,4.59-4.36,7-4.35c2.35,0.01,4.69,2.81,7.04,4.39
		C704.6,630.13,704.89,629.75,705.17,629.38z M694.8,630.68c-0.45,0.26-0.91,0.52-1.36,0.78c0.28,3.07,0.12,6.28,1.02,9.16
		c0.45,1.43,2.9,3.21,4.33,3.11c1.8-0.12,3.77-1.74,5.08-3.23c0.73-0.83,0.9-3.49,0.28-3.96
		C701.23,634.32,697.95,632.59,694.8,630.68z"/>
	<path d="M308.17,615.54c-0.18-1.73-0.29-3.46-0.57-5.17c-0.49-2.96-1.5-5.89-1.53-8.84c-0.02-1.92,1.3-3.86,2.02-5.79
		c1.08,1.72,2.78,3.33,3.12,5.18c0.89,4.9,1.26,9.89,1.7,14.86c0.21,2.31,0.52,4.73,0.01,6.93c-0.35,1.54-1.76,3.36-3.16,3.95
		c-0.91,0.38-2.98-0.93-3.96-2c-2.23-2.45-3.97-5.34-6.18-7.8c-0.86-0.96-2.47-1.25-3.73-1.84c-0.46,1.16-1.04,2.29-1.33,3.49
		c-0.23,0.95-0.19,2-0.1,2.99c0.39,4.45-0.52,6.13-6,5.91c-6.01-0.24-11.02-1.45-15.59-5.11c-2.3-1.84-4.18-1.73-5.62,1.08
		c-0.45,0.88-0.95,1.96-1.74,2.4c-2.68,1.49-5.47,3.6-8.27,3.66c-1.26,0.03-3.12-4.06-3.81-6.53c-0.88-3.16-0.92-6.57-1.21-9.88
		c-0.8-9.18,2.71-12.89,11.76-12.24c1,0.07,2.24,1.25,2.78,2.24c1.1,2.03,2.06,4.22,2.6,6.46c1.79,7.46,7.85,10.41,13.89,13.26
		c2.97,1.4,5.19-0.04,5.89-3.23c0.74-3.41,1.04-6.93,1.93-10.3c0.42-1.59,1.47-3.59,2.79-4.17c0.94-0.42,3.07,0.9,4.17,1.96
		c1.79,1.71,3.06,3.93,4.75,5.75c1.23,1.33,2.79,2.35,4.21,3.51C307.39,616.03,307.78,615.78,308.17,615.54z M256.03,609.46
		c0.22,2.62,0.41,4.26,0.49,5.92c0.07,1.65-0.27,3.38,0.12,4.94c0.32,1.26,1.32,3.13,2.25,3.28c1.3,0.2,3.29-0.56,4.14-1.59
		c4.06-4.96,3.81-6.68-1.72-13.36c-0.87-1.06-2.57-1.43-3.89-2.12C256.84,607.76,256.26,608.99,256.03,609.46z"/>
	<path d="M522.7,371.7c-1.01-1.21-2.66-2.29-2.92-3.65c-0.89-4.56-1.33-9.21-1.87-13.83c-1.47-12.54-2.85-25.08-4.42-37.6
		c-0.24-1.93-1.22-3.79-2.02-5.61c-0.95-2.17-2.45-4.56,0.89-5.77c3.7-1.34,4.22,1.81,4.59,4.18c1.15,7.55,1.93,15.15,3.11,22.69
		c0.32,2.06,1.58,3.98,2.41,5.96c1.77-0.98,3.99-1.56,5.23-3c5.53-6.41,12.09-11.38,19.68-14.99c1.05-0.5,2.54-0.06,3.83-0.06
		c-0.63,1.2-0.99,2.71-1.94,3.56c-5.58,4.95-11.28,9.77-16.99,14.57c-2.51,2.11-1.8,3.87,0.22,5.78
		c6.64,6.28,13.26,12.58,19.81,18.96c1.34,1.31,2.36,2.95,3.53,4.44c-0.27,0.45-0.55,0.9-0.82,1.36c-1.98-0.74-4.3-1.04-5.88-2.28
		c-7.01-5.53-13.81-11.32-20.67-17.03c-1.55-1.29-3.08-2.62-4.61-3.93c-0.52,0.23-1.03,0.45-1.55,0.68
		c0.66,8.11,1.32,16.22,1.98,24.33C523.75,370.86,523.22,371.28,522.7,371.7z"/>
	<path d="M815.26,630.87c-1.02,3.68-2.6,4.24-5.32,1.26c-1.49-1.63-3.33-2.94-5.12-4.5c-3.8,6.58,0.11,16.13,6.61,17.19
		c1.64,0.27,4.64-0.59,5.11-1.72c1.24-2.99,2.22-6.51,1.84-9.65c-0.46-3.83-2.77-7.41-3.56-11.24c-0.31-1.52,1.29-3.43,2.02-5.17
		c1.4,1.05,3.51,1.81,4.06,3.19c1.2,3.05,1.66,6.4,2.34,9.64c1.58,7.46,7.11,12.21,13.3,14.49c4.57,1.68,10.51-0.35,15.83-0.72
		c0.14-0.54,0.28-1.07,0.42-1.61c-1.02-1.11-1.97-2.29-3.06-3.32c-2.3-2.15-4.83-4.07-6.98-6.36c-3.5-3.74-3.62-7.6-0.69-11.19
		c2.62-3.21,9.1-5.05,12.26-3.26c0.76,0.43,1.65,2.12,1.37,2.62c-0.53,0.96-1.8,2-2.85,2.11c-2.74,0.27-7-2-7.3,2.33
		c-0.17,2.47,2.77,5.56,4.97,7.69c2.21,2.15,5.24,3.45,7.91,5.12c3.39,2.12,3.54,4.18,0.47,6.48c-7.97,5.94-23.34,6.14-31.14,0.12
		c-3-2.31-4.68-2.68-7.01,1.01c-3.53,5.61-8.52,6.24-14.18,2.59c-7.26-4.68-10.05-15.63-5.67-21.74c2.39-3.33,4.95-3.59,7.96-1.03
		C810.99,627.01,813.06,628.92,815.26,630.87z"/>
	<path d="M898.84,511.68c0.25-8.73-8.64-13.05-6.72-21.5c1.82,2.13,3.64,4.26,5.63,6.59c1.04-4.44,1.39-8.4,3.07-11.68
		c0.53-1.04,4.7-0.63,7.08-0.2c3.36,0.6,6.16,2.18,5.44,7.1c-1.58-0.61-2.71-1.17-3.9-1.49c-1.84-0.49-3.72-0.81-5.58-1.21
		c-0.16,1.91-0.75,3.9-0.42,5.72c1.37,7.67,3.2,15.27,4.42,22.96c0.28,1.75-0.81,5.08-1.94,5.42c-2.86,0.84-3.91-1.56-3.97-4.23
		c-0.01-0.5-0.1-1-0.23-1.48c-0.29-1.12-0.61-2.22-1.61-2.1c-5.1-2.28-10.23-4.49-15.27-6.88c-2.4-1.13-3.78-0.87-4.21,1.97
		c-0.59,3.93-2.18,6.96-6.67,7.51c-4.58,0.56-8.7-0.5-10.36-5c-2.05-5.52-3.39-11.34-4.59-17.12c-0.21-1,1.79-2.46,2.77-3.7
		c0.89,1.32,2.6,2.68,2.54,3.96c-0.24,5.76,2.3,10.33,5.66,14.53c0.84,1.05,2.76,1.86,4.06,1.7c1-0.12,2.31-1.8,2.59-2.99
		c0.67-2.89,0.67-5.93,1.25-8.85c0.38-1.91,1.29-3.72,1.97-5.58c1.68,1.12,3.64,1.99,4.98,3.42c2.49,2.65,4.42,5.85,6.98,8.42
		C893.56,508.75,896.01,509.84,898.84,511.68z"/>
	<path d="M1018.07,384.74c-7.41-3.14-7.02-10.56-11.65-15.1c-0.8,2.13-1.08,3.64-1.87,4.8c-1.33,1.95-2.94,3.73-4.61,5.41
		c-0.13,0.13-2.34-1.09-2.37-1.72c-0.09-2.86-0.84-7.35,0.62-8.33c8.93-6,6.2-14.02,4.77-21.91c-2.5-13.72-5.08-27.42-7.61-41.13
		c-0.18-0.98-0.53-2.06-0.3-2.96c0.49-1.91,1.31-3.73,2-5.59c1.18,1.5,2.83,2.82,3.45,4.52c2.97,8.12,6.45,16.18,8.19,24.58
		c1.43,6.87,1.06,14.2,0.78,21.3c-0.44,11.12,2.19,21.4,7.01,31.27C1017.02,380.99,1017.27,382.26,1018.07,384.74z"/>
	<path d="M153.41,118.4c0-11.93,0.1-24.17-0.03-36.41c-0.13-13.29-0.53-26.58-0.62-39.87c-0.01-1.18,1.44-2.37,2.21-3.55
		c1.09,0.96,3.06,1.87,3.12,2.88c0.33,6.29,0.26,12.6,0.27,18.91c0.02,8.93,0.01,17.86,0.01,28.1c1.99-1.32,3.74-2.09,4.96-3.36
		c5.81-6.04,13.25-5.02,14.98,3.14c1.79,8.47,1.36,17.41,1.73,26.16c0.03,0.8-1.52,2.45-1.82,2.33c-1.25-0.47-3.12-1.34-3.26-2.29
		c-0.36-2.39,0.29-4.91,0.18-7.36c-0.23-5.07,0.14-10.37-1.26-15.13c-1.71-5.81-5.32-5.66-9.36-1.27
		c-6.59,7.16-3.65,16.04-4.95,24.09C158.97,118.55,158.26,120.02,153.41,118.4z"/>
	<path d="M784.15,228.97c0-8.94,0.14-17.35-0.04-25.75c-0.22-10.31-0.76-20.61-0.99-30.91c-0.03-1.29,0.98-2.6,1.51-3.91
		c1.43,0.62,3.38,0.85,4.2,1.94c5.62,7.39,11.05,14.93,16.39,22.53c0.65,0.93,0.41,2.48,0.58,3.74c-0.58,0.3-1.17,0.59-1.75,0.89
		c-3.81-4.4-7.57-8.85-11.47-13.17c-1.1-1.22-2.64-2.05-3.98-3.05c-0.37,1.62-1.07,3.25-1.04,4.86c0.22,11.31,0.6,22.61,0.92,33.92
		c0.04,1.33-0.01,2.67,0.12,3.99c0.48,4.75,2.39,5.78,6.61,3.48c1.44-0.79,2.6-2.08,4.03-2.9c1.42-0.82,3.02-1.34,5.74-2.5
		c-1.54,6.74-5.71,9.24-10.07,10.72c-4.03,1.37-4.65,3.47-3.9,7.09c0.9,4.39,1.62,8.83,2.18,13.28c0.41,3.27-0.68,5.99-4.13,7.06
		c-0.83,0.26-2.19,0.26-2.67-0.23c-0.49-0.51-0.59-1.99-0.2-2.67c3.87-6.82-0.01-13.3-0.83-19.89c-0.12-0.99-1.63-1.93-2.67-2.65
		c-1.08-0.74-2.79-0.88-3.47-1.83c-1.23-1.71-1.9-3.82-2.8-5.76c1.8,0.27,3.61,0.48,5.4,0.83
		C782.57,228.21,783.28,228.62,784.15,228.97z"/>
	<path d="M519.04,568.74c-0.88-1.07-2.12-2-2.57-3.22c-2.68-7.3-5.6-14.56-7.64-22.05c-2.64-9.75-4.57-19.7-6.72-29.58
		c-0.58-2.68-1.81-2.57-3.93-1.58c-8.9,4.15-13.39,1.91-16.08-7.86c-2.66-9.65-0.45-14.81,7.59-16.79c1.34-0.33,3.12,1.1,4.7,1.72
		c-1.03,1.21-1.84,3.13-3.12,3.52c-5.1,1.57-6.19,3.11-5.14,8.64c0.95,5.01,4.04,7.91,7.84,7.37c3.33-0.48,6.63-5.03,6.43-8.95
		c-0.24-4.65-0.83-9.31-0.7-13.94c0.05-1.91,1.59-3.79,2.45-5.68c1.19,1.66,3.26,3.24,3.42,5c0.72,7.61,0.35,15.34,1.35,22.89
		c2.61,19.61,5.75,39.15,13.23,57.67c0.27,0.66,0.1,1.5,0.14,2.25C519.88,568.35,519.46,568.54,519.04,568.74z"/>
	<path d="M83.81,285.26c1.71,1.84,4.19,3.4,5,5.58c4.06,10.89,7.73,21.92,11.46,32.93c3.61,10.64,7.14,21.31,10.69,31.97
		c0.38,1.14,0.6,2.34,0.89,3.51c-0.49,0.33-0.98,0.67-1.46,1c-1.22-1.34-2.92-2.47-3.58-4.04c-2.31-5.51-4.27-11.16-6.33-16.77
		c-1.64-4.46-3.89-5.15-10.57-4.13c-4.31,0.66-3.87,3.26-4.01,6.48c-0.2,4.76-1.07,9.52-2.07,14.19c-0.23,1.08-2.12,1.8-3.25,2.68
		c-0.56-1.43-1.77-2.97-1.56-4.28c0.71-4.4,2.2-8.68,2.85-13.09c0.33-2.22-0.49-4.61-0.76-6.7c0.69-4.3,2-8.58,1.93-12.83
		c-0.16-9.64-1.07-19.26-1.54-28.9c-0.11-2.21,0.34-4.45,0.53-6.67C82.61,285.88,83.21,285.57,83.81,285.26z M97.95,329.6
		c-2.8-8.8-5.58-17.62-8.46-26.42c-0.21-0.63-1.31-1.57-1.61-1.44c-0.78,0.34-1.78,1.09-1.92,1.83c-0.31,1.6-0.24,3.3-0.14,4.95
		c0.45,7,0.96,14,1.48,21.34c2.55,0.14,6,0.33,9.45,0.5C96.9,330.37,97.04,330.19,97.95,329.6z"/>
	<path d="M387.73,482c-2.57-8-5.12-15.68-7.5-23.42c-2.34-7.62-4.62-15.27-6.64-22.98c-0.37-1.41,0.62-3.17,0.98-4.77
		c1.35,0.97,3.44,1.65,3.93,2.94c6.83,17.81,14.91,35.23,15.85,54.81c0.19,3.95,2.49,7.79,3.69,11.71c0.29,0.94,0.08,2.04,0.1,3.06
		c-1.03-0.21-2.58-0.07-3.01-0.7c-2.34-3.41-4.58-2.67-7.54-0.72c-4.68,3.09-8.61,1.68-10.69-3.46c-0.68-1.69-1.33-3.44-1.68-5.22
		c-1.53-7.69,1.62-11.36,9.38-11.07C385.55,482.23,386.51,482.08,387.73,482z M384.95,485.51c-4.11,0.72-5.52,2.21-5.46,5.32
		c0.07,3.39,0.59,6.82,4.79,6.68c4.34-0.14,4.2-4.37,4.28-7.18C388.6,488.76,386.23,487.12,384.95,485.51z"/>
	<path d="M578.65,486.32c0.36,2,0.69,4.01,1.08,6.01c1.07,5.54,2.63,11.04,3,16.62c0.15,2.23-1.95,5.04-3.79,6.76
		c-0.67,0.63-3.61-1.05-5.45-1.84c-1.72-0.74-3.35-1.68-5.29-2.67c-0.52,1.26-0.87,1.82-0.98,2.42c-1.27,6.97-3.37,9.23-8.84,9.43
		c-6.7,0.25-11.05-2.8-12.41-9.06c-0.63-2.9-1.12-5.95-0.94-8.88c0.51-8.58,8.19-14.1,16.38-11.88c1.05,0.28,1.97,1.62,2.63,2.67
		c2.04,3.22,3.69,6.71,5.94,9.77c1.35,1.83,3.54,3.05,5.36,4.55c0.62-0.26,1.24-0.53,1.86-0.79c-0.63-4.94-1.21-9.88-1.89-14.81
		c-0.45-3.26-1.4-6.49-1.48-9.75c-0.14-5.55,1-6.54,6.08-4.72c3.19,1.14,6.11,3.29,8.8,5.44c0.92,0.74,0.75,2.83,1.08,4.31
		c-1.51-0.23-3.18-0.11-4.48-0.76c-1.92-0.95-3.57-2.44-5.34-3.7C579.52,485.71,579.09,486.01,578.65,486.32z M552.32,498.3
		c-4.14,6.06-4.9,12.27-1.17,16.34c1.89,2.07,5.27,3.3,8.13,3.66c0.96,0.12,3.12-3.51,3.5-5.64
		C564.22,504.54,563.27,504.01,552.32,498.3z"/>
	<path d="M413.62,668.52c7.56-2.47,14.53-4.32,21.13-7.03c5.73-2.36,5.96-3.54,2.56-8.46c-4.81-6.96-9.94-13.7-15.07-20.43
		c-1.75-2.29-3.5-3.5-5.47,0.33c-3.21,6.23-11.99,6.35-16.06,0.62c-3.25-4.57-3.47-9.65-2.67-14.8c0.51-3.24,2.61-5.17,6.32-5.03
		c2.24,0.08,4.59-0.96,6.74-0.59c1.86,0.32,4.02,1.52,5.16,3c6.85,8.97,13.53,18.09,20.09,27.28c2.59,3.62,4.93,7.45,7.03,11.38
		c1.66,3.12,1.09,6.1-1.97,8.35c-6.81,5.01-14.66,6.89-22.88,7.33C416.97,670.56,415.34,669.24,413.62,668.52z M402.2,618.44
		c-0.38,0.47-0.76,0.94-1.14,1.41c0.38,2.42,0.15,5.2,1.31,7.15c1.29,2.16,3.75,4.75,5.91,4.97c2.17,0.21,4.72-2.13,6.81-3.73
		c0.31-0.24-0.67-2.92-1.64-3.87c-1.39-1.35-3.26-2.26-5.03-3.16C406.41,620.17,404.28,619.35,402.2,618.44z"/>
	<path d="M107.22,31.96c9.23-1.34,18.48-2.59,27.67-4.13c1.33-0.22,2.4-1.86,3.64-2.8c0.83-0.63,1.73-1.16,2.6-1.73
		c0.44,1.12,1.58,2.72,1.2,3.29c-1.57,2.33-3.21,5.43-5.54,6.25c-4.95,1.74-10.37,2.09-15.53,3.29c-6.84,1.58-6.8,2.1-6.83,9.13
		c-0.08,19.61-0.36,39.22-0.79,58.83c-0.04,1.6-1.84,3.16-2.82,4.74c-0.63-1.81-1.83-3.63-1.8-5.43c0.24-15.43,0.71-30.85,1.1-46.28
		c0.12-4.65-0.13-9.34,0.47-13.93c0.44-3.35-0.73-4.23-3.64-4.21c-2.83,0.02-5.82,0.52-8.43-0.25c-1.93-0.57-3.37-2.82-5.03-4.33
		c1.59-0.72,3.12-1.69,4.78-2.11c2.87-0.72,5.82-1.11,8.74-1.63C107.08,31.1,107.15,31.53,107.22,31.96z"/>
	<path d="M486.34,358.76c1.35-3.7-2.47-8.76,3.61-9.96c4.26-0.84,9.59,2.09,10.86,6.44c-2.42-0.69-4.41-1.09-6.27-1.82
		c-3.33-1.3-5.04-0.33-4.35,3.24c0.84,4.38,2.11,8.69,3.2,13.03c0.8,3.21,1.88,6.4,2.26,9.66c0.15,1.29-0.92,3.47-2.01,3.95
		c-0.96,0.42-3.2-0.6-3.99-1.65c-1.12-1.49-1.54-3.56-2.07-5.44c-1.12-3.96-1.95-8-3.24-11.9c-0.38-1.15-1.92-1.92-2.93-2.86
		c-0.6,1.22-1.67,2.42-1.73,3.66c-0.56,11.98-10.48,20.25-22.25,17.62c-2.79-0.63-5.64-3.84-7.2-6.58
		c-3.25-5.7-0.46-11.13,2.91-15.69c3.03-4.11,7.77-2.81,12.01-1.87c1.61,0.35,3.2,0.92,4.71,1.59c3.19,1.41,6.07,2.42,5.65-3.08
		C479.32,357.68,482.71,358.2,486.34,358.76z M476.62,367.61c-3.55-1.21-5.27-1.7-6.91-2.39c-1.83-0.77-3.52-2.21-5.39-2.45
		c-2.63-0.34-7.25-0.63-7.7,0.45c-1.48,3.5-2.75,8.06-1.66,11.44c1.41,4.39,8.28,5.93,11.91,3.17
		C470.26,375.25,472.86,371.64,476.62,367.61z"/>
	<path d="M709.4,86.5c1.79-2.69,3.5-5.44,5.41-8.04c1.17-1.59,2.54-3.1,4.05-4.35c2.91-2.41,6.55-1.42,6.5,2.24
		c-0.13,9.24-1.11,18.47-2.03,27.68c-0.08,0.79-2.19,1.38-3.36,2.07c-0.53-1.06-1.62-2.19-1.5-3.17c0.63-5.1,1.74-10.14,2.3-15.24
		c0.21-1.9-0.63-3.92-1-5.88c-1.54,1.49-3.43,2.75-4.54,4.51c-2.56,4.06-4.54,8.5-7.2,12.49c-0.96,1.44-3.91,3.23-4.68,2.76
		c-1.6-0.97-3.43-3.46-3.25-5.11c0.9-8.24,2.91-16.38,3.62-24.63c0.9-10.58,4.84-21.17,0.65-31.9c-0.24-0.63,1.09-2.61,1.28-2.55
		c1.44,0.42,3.53,0.86,3.99,1.92c0.89,2.06,1.32,4.56,1.11,6.8c-1.1,11.56-2.52,23.09-3.69,34.64c-0.18,1.81,0.37,3.69,0.59,5.54
		C708.24,86.34,708.82,86.42,709.4,86.5z"/>
	<path d="M311.02,54.77c-0.26-1.3-0.39-2.65-0.79-3.9c-1.36-4.24-2.37-8.68-4.35-12.62c-2.79-5.53-8.66-7.49-14.47-5.4
		c-1.12,0.4-2.62,1.45-2.82,2.43c-0.99,5.02-2.39,10.15-2.18,15.17c0.3,7.23,1.84,14.41,2.9,21.6c0.82,5.56,4.18,7.32,9.43,5.41
		c1.48-0.54,3.39,0.11,5.1,0.21c-1.23,1.28-2.39,3.58-3.69,3.67c-8.51,0.54-10.44,4.73-9.24,12.76c0.92,6.14-0.11,12.61-0.63,18.91
		c-0.13,1.55-1.64,2.99-2.51,4.48c-0.47-1.55-1.37-3.12-1.33-4.66c0.22-8.47,0.48-16.94,1.13-25.39c0.23-3.02-1.16-3.73-3.46-4.34
		c-3.04-0.8-6.1-1.59-9-2.77c-0.91-0.37-1.31-1.97-1.95-3.01c1.09-0.46,2.25-1.43,3.24-1.28c3.38,0.53,6.7,1.46,10.39,2.31
		c0.16-1.39,0.43-2.17,0.31-2.89c-1.02-6.63-1.24-13.54-3.38-19.8c-2.66-7.78-0.95-14.8,1.25-21.94c1.71-5.54,6.74-6.66,11.65-6.84
		c5.24-0.19,9.51,2.65,11.83,7.07c2.37,4.5,3.79,9.55,5.18,14.48c0.54,1.92-0.14,4.19-0.26,6.3
		C312.61,54.74,311.81,54.75,311.02,54.77z"/>
	<path d="M825.89,515.31c-2.18-15.57-4.41-31.13-6.45-46.72c-0.16-1.25,1-2.68,1.55-4.03c0.97,0.88,2.61,1.64,2.81,2.67
		c1.66,8.61,3.01,17.28,4.55,25.92c0.3,1.68,0.97,3.29,1.46,4.93c1.35-0.71,2.87-1.21,4.02-2.17c5.34-4.49,10.47-3.87,14.26,1.86
		c3.46,5.23,3.21,15.44-0.51,20.4c-4.26,5.68-11.57,7.65-18.73,6.14C822.79,523.03,824.69,519.05,825.89,515.31z M829.76,510.45
		c-0.35,7.99,3.37,10.4,9.68,7.18c5.29-2.71,6.39-11.37,2.4-17.13c-1.98-2.86-3.99-3.04-6.67-1.22
		C830.89,502.19,829.23,506.26,829.76,510.45z"/>
	<path d="M260.79,244.22c-1.33-0.06-2.67-0.25-3.99-0.17c-3.89,0.22-5.64-0.93-5.44-5.42c0.6-13.81,0.75-27.63,0.92-41.45
		c0.04-3.11-0.76-6.21-0.83-9.33c-0.03-1.3,0.85-2.61,1.31-3.92c1.31,0.92,3.53,1.67,3.76,2.81c0.69,3.56,0.88,7.27,0.81,10.91
		c-0.12,6.31-0.37,12.64-0.97,18.92c-0.38,3.95,1.28,4.68,4.62,4.16c3.27-0.51,6.6-1.41,9.83-1.15c6.83,0.55,10,5.54,8.41,12.32
		C277.22,240.32,270.97,244.5,260.79,244.22z M256.81,232.28c0.09,5.25,1.86,6.74,7.79,6.53c5.39-0.18,9.2-3.93,9.04-9.07
		c-0.15-4.61-3.72-5.25-7.04-5.09C260.06,224.98,255.39,226.11,256.81,232.28z"/>
	<path d="M426.6,367.85c1.92,9.06,3.82,17.43,5.42,25.86c0.77,4.07,1.15,8.24,1.26,12.38c0.03,1.16-1.54,2.37-2.38,3.55
		c-0.92-1.14-2.45-2.18-2.67-3.44c-1.99-11.59-3.62-23.24-5.72-34.81c-0.38-2.1-2.46-3.89-3.97-6.15c0.53-0.24,1.72-0.78,2.87-1.29
		c-1.08-5.24-2.12-10.41-3.23-15.56c-0.79-3.69-0.03-5.86,4.41-5.43c1.38,0.14,2.89-0.56,4.27-1.08c6.29-2.4,10.53-1.26,15.98,4.39
		c3.49,3.62,5,10.94,3.15,15.29c-2.16,5.08-6.31,7.22-13.11,6.77C430.95,368.2,429.02,368.03,426.6,367.85z M431.51,365.04
		c3.84-0.07,8.57-0.18,9.81-5.14c1.21-4.86-2-8.43-5.62-11.37c-0.63-0.51-1.44-1.2-2.14-1.18c-2.31,0.06-4.89-0.17-6.84,0.8
		c-2.68,1.33-3.86,3.94-2.63,7.17c0.64,1.69,1.31,3.52,1.29,5.28C425.29,364.87,427.59,365.66,431.51,365.04z"/>
	<path d="M126.06,219.93c-7.35,0-14.7,0-22.51,0c0.58,7.53,1.11,14.42,1.62,21.32c0.11,1.47,0.64,3.21,0.04,4.34
		c-0.71,1.35-2.42,2.18-3.7,3.24c-0.88-1.32-2.47-2.62-2.53-3.97c-0.25-6.3-0.17-12.63-0.03-18.94c0.1-4.16-1.08-6.11-5.6-4.38
		c-1.82,0.7-3.92,1.21-5.82,1.02c-1.54-0.15-2.98-1.46-4.46-2.26c1.04-1.09,1.92-2.84,3.15-3.15c3.99-1.02,8.12-1.51,13.13-2.36
		c-1.01-10.52-2.07-20.87-2.95-31.24c-0.15-1.73,0.54-3.52,0.83-5.29c1.61,1.28,4.27,2.31,4.64,3.89c1.14,4.79,1.54,9.78,1.95,14.72
		c0.38,4.63,0.13,9.32,0.73,13.91c0.16,1.22,2.24,2.82,3.68,3.13c4.67,1.03,9.48,1.42,14.18,2.32c1.41,0.27,2.65,1.43,3.97,2.18
		C126.28,218.91,126.17,219.42,126.06,219.93z"/>
	<path d="M139,230.02c2.08-1.18,3.69-1.68,4.69-2.75c3.56-3.76,6.33-3.93,9.65-0.28c3.45,3.8,4.97,17.03,2.25,21.51
		c-0.72,1.19-2.26,1.88-4.13,3.35c0-5.71,0.21-10.29-0.12-14.82c-0.12-1.58-1.58-3.07-2.42-4.6c-1.31,1.15-3.06,2.05-3.84,3.49
		c-1.98,3.61-3.13,7.72-5.42,11.09c-1.01,1.49-3.95,1.68-6.02,2.46c-0.41-1.75-1.22-3.52-1.16-5.26
		c0.44-11.43,1.78-22.88,1.35-34.26c-0.25-6.55-3.39-12.96-4.98-19.5c-0.42-1.72,0.09-3.66,0.17-5.49c1.73,1.13,4.46,1.89,5.03,3.44
		c4.2,11.55,5.02,23.65,4.95,35.83C138.99,225.84,139,227.44,139,230.02z"/>
	<path d="M873.77,126.88c-0.39-1.61-1.18-3.23-1.11-4.82c0.26-5.81,0.85-11.61,1.22-17.41c0.09-1.48,0.23-3.2-0.4-4.42
		c-1.07-2.07-2.73-3.84-4.14-5.74c-1.29,1.7-3.08,3.21-3.76,5.12c-1.49,4.21-2.2,8.7-3.68,12.92c-0.51,1.45-2.38,2.41-3.62,3.6
		c-0.66-1.46-1.89-2.92-1.89-4.37c0.05-18.07,0.28-36.14,0.45-54.21c0.01-1-0.49-2.25-0.05-2.94c0.77-1.21,2.07-2.08,3.16-3.1
		c0.78,1.07,2.24,2.14,2.24,3.21c-0.01,10.98-0.29,21.96-0.41,32.93c-0.02,1.51,0.48,3.03,0.74,4.55c1.42-0.59,3.04-0.91,4.21-1.83
		c3.89-3.04,11.17-0.65,11.99,4.92c1.54,10.52,0.89,21.08-2.9,31.18C875.13,126.62,874.45,126.75,873.77,126.88z"/>
	<path d="M285,756.6c-1.65-13.74-9.73-21.31-19.24-27.93c0.12-0.44,0.24-0.88,0.36-1.32c1.69,0.13,3.53-0.11,5.06,0.46
		c9.57,3.55,18.91,18.18,18.17,28.2c-0.38,5.11-3.95,7.46-8.65,5.3c-2.51-1.15-4.66-3.09-6.99-4.64c-2.5-1.67-4.61-3.11-6.7,1
		c-2.2,4.33-6.53,4.98-11.14,2.02c-6.73-4.32-10.25-11.12-13.08-18.28c-1.03-2.61-1.79-5.38-2.24-8.15
		c-0.18-1.08,0.82-2.35,1.29-3.53c0.97,0.87,2.36,1.56,2.84,2.65c2.25,5.1,3.86,10.52,6.49,15.4c1.4,2.6,4.21,4.65,6.78,6.35
		c1.42,0.93,4.87,1.37,5.29,0.7c1.01-1.63,0.97-4.02,0.98-6.1c0-0.84-1.18-1.62-1.45-2.53c-0.56-1.89-0.86-3.85-1.27-5.78
		c2.1,0.78,4.64,1.07,6.22,2.45c3.85,3.35,7.15,7.35,10.92,10.8C279.94,754.87,281.99,755.27,285,756.6z"/>
	<path d="M697.6,64.6c-3.69,0.21-7.1,0.24-10.46,0.65c-3.05,0.36-4.59,2.28-4.69,5.45c-0.31,9.63-0.76,19.25-1.03,28.87
		c-0.06,2.13,0.52,4.27,0.54,6.41c0.01,1.13-0.53,2.27-0.82,3.4c-1.27-0.76-3.45-1.35-3.64-2.32c-0.57-2.87-0.55-5.91-0.41-8.86
		c0.41-8.45,0.99-16.89,1.53-25.34c0.21-3.22-1.2-4.35-4.22-3.31c-2.97,1.01-5.84,2.51-8.88,3.08c-1.64,0.3-3.56-0.9-5.36-1.42
		c1.21-1.39,2.16-3.35,3.69-4.04c2.68-1.21,5.68-2.02,8.61-2.33c5.2-0.56,5.45-3.5,4.75-7.7c-1.38-8.26-5.86-15.93-4.64-24.68
		c0.16-1.14-0.41-2.57,0.1-3.42c0.91-1.53,2.39-2.73,3.63-4.07c0.62,1.47,1.57,2.89,1.8,4.42c1.42,9.65,2.51,19.35,4.23,28.94
		c0.19,1.07,3.56,1.75,5.55,2.26c3.03,0.78,6.14,1.21,9.19,1.93C697.33,62.58,697.37,63.66,697.6,64.6z"/>
	<path d="M716.05,378.85c-0.87-1.44-1.93-2.79-2.59-4.32c-3.22-7.45-6.25-14.99-9.54-22.41c-0.76-1.71-2.26-3.08-3.43-4.63
		c-8.14,6.97-9.54,13.49-5.61,24.53c1.51,4.25,1.51,4.25-2.42,7.15c-1.75-7.3-3.43-14.13-5.03-20.99c-2.1-9.04-4.15-18.1-6.2-27.16
		c-1.63-7.21-3.34-14.4-4.67-21.66c-0.23-1.27,1.21-2.84,1.88-4.27c0.94,1.31,2.41,2.5,2.73,3.94c2.72,12.48,5.16,25.03,7.92,37.51
		c0.32,1.45,2.09,2.57,3.19,3.84c0.88-1.39,1.92-2.71,2.62-4.19c1-2.12,1.75-4.36,2.61-6.55c2.14,1.41,4.77,2.42,6.34,4.31
		c7.62,9.17,10.87,20.39,13.99,31.6c0.22,0.8-0.3,1.82-0.47,2.73C716.92,378.46,716.48,378.65,716.05,378.85z"/>
	<path d="M101.43,600.16c-1.25,11.77-6.69,19.97-15.43,26.05c-2.92,2.03-7.51,0-8.16-3.58c-1.56-8.63-2.77-17.32-4.25-25.96
		c-0.92-5.38-2.23-10.7-3.07-16.09c-0.97-6.18-1.74-12.39-2.29-18.61c-0.11-1.29,1.13-2.69,1.75-4.04c0.81,1.32,2.16,2.58,2.35,3.99
		c1.17,8.56,2.09,17.16,3.06,25.75c0.32,2.88,1.45,3.89,4.28,2.37c7.58-4.08,14.09-3.24,19.42,3.13
		C100.72,595.1,100.85,598.3,101.43,600.16z M77.81,600.21c1.26,7.4,2.14,12.97,3.17,18.51c0.67,3.61,3.2,3.26,5.1,1.54
		c5.12-4.6,9.11-10.08,10.47-17.02c0.6-3.07,1.4-6.89-2.31-8.32c-3.65-1.41-8.13-2.87-11.56-1.9
		C80.24,593.71,78.94,598.4,77.81,600.21z"/>
	<path d="M187.21,354.84c-6.04-2.58-8.2-11.09-16.77-11.35c0.32,3.46,0.91,6.52,0.77,9.54c-0.08,1.61-1.43,3.15-2.21,4.72
		c-0.98-1.6-2.83-3.21-2.81-4.8c0.24-18.86-4.5-36.86-8.93-54.93c-0.35-1.42-0.04-3.1,0.36-4.55c0.09-0.34,2.29-0.68,2.63-0.27
		c0.86,1.02,1.46,2.41,1.72,3.74c1.63,8.48,3.07,17,4.76,25.46c0.21,1.03,1.63,2.63,2.36,2.56c1.15-0.1,2.62-1.16,3.22-2.23
		c1.85-3.32,3.04-7.04,5.16-10.15c0.8-1.18,3.43-1.11,5.22-1.61c-0.27,1.51-0.23,3.15-0.86,4.5c-2.67,5.72-5.72,11.27-8.16,17.08
		c-0.49,1.16,0.71,3.51,1.78,4.74c3.55,4.07,7.52,7.78,11.07,11.85c1.06,1.21,1.27,3.16,1.87,4.77
		C188,354.22,187.61,354.53,187.21,354.84z"/>
	<path d="M777.65,642.99c-4.67,7.14-9.78,8.07-16.3,2.89c-7.57-6-10.62-14.69-12.78-23.66c-0.26-1.07,1.71-2.68,2.65-4.04
		c0.8,1.22,2.13,2.37,2.32,3.69c1.23,8.69,5.61,15.58,12.32,20.84c1.49,1.16,4.7,0.88,6.74,0.18c0.74-0.26,0.64-3.71,0.46-5.66
		c-0.12-1.24-1.35-2.35-1.6-3.61c-0.31-1.59-0.13-3.29-0.16-4.93c1.65,0.79,3.68,1.22,4.88,2.45c2.42,2.48,4.16,5.64,6.63,8.04
		c1.37,1.33,3.66,1.7,5.54,2.5c0.48-1.68,1.29-3.34,1.4-5.05c0.54-8.55-3.66-15.29-8.65-21.66c-0.71-0.91-1.9-1.6-2.25-2.61
		c-0.37-1.04,0.01-2.35,0.07-3.54c1.03,0.1,2.27-0.13,3.05,0.36c8.94,5.6,15.1,22.82,11.91,33c-1.17,3.74-4.81,5.61-8.77,4.22
		C782.63,645.53,780.31,644.22,777.65,642.99z"/>
	<path d="M561.33,786.27c2.25,0.32,3.38,0.32,4.4,0.66c5.46,1.8,10.8,1.75,14.75-2.77c4.05-4.64,2.14-10.06,0.42-15.14
		c-0.64-1.88-1.72-3.6-2.55-5.42c-1.57-3.44-2.91-6.68-7.36-2.41c-0.95,0.91-4.13,0.07-6.01-0.66c-4.55-1.77-7.49-8.6-6.6-14.99
		c0.61-4.41,4.15-5.45,7.82-6.52c4.09-1.19,6.05,1.26,7.52,4.1c4.33,8.4,8.34,16.96,12.6,25.4c2.79,5.53,2.01,11.24,0.13,16.53
		c-1.7,4.78-6.5,6.49-11.3,6.89C570.18,792.36,565.45,791.55,561.33,786.27z M561.18,747.88c2.07,2.83,4.12,5.8,6.45,8.52
		c0.2,0.24,3.35-1.43,3.28-1.66c-0.98-3.28-2.07-6.58-3.66-9.6c-0.43-0.81-2.65-1.03-3.97-0.87
		C562.67,744.35,562.24,745.98,561.18,747.88z"/>
	<path d="M808.09,751.98c0.61-1.54,1.39-3.04,1.81-4.63c1.69-6.43,3.23-12.9,4.91-19.33c0.37-1.42,0.76-3.06,1.72-4.03
		c0.84-0.84,2.75-1.5,3.7-1.1c0.9,0.38,1.89,2.45,1.62,3.43c-2.35,8.31-4.9,16.57-7.59,24.79c-0.49,1.49-2.03,2.6-2.79,4.04
		c-1.8,3.45-3.37,7.03-5.16,10.49c-0.67,1.29-1.71,2.38-2.58,3.57c-0.72-1.39-1.99-2.74-2.07-4.17c-0.43-7.46-0.09-14.99-0.93-22.39
		c-1.06-9.34-3.13-18.56-4.47-27.87c-0.25-1.75,0.88-3.69,1.37-5.55c1.25,1.46,3.19,2.73,3.62,4.4c2.78,10.76,5.95,21.5,4.45,32.88
		c-0.23,1.71,0.55,3.56,0.86,5.34C807.08,751.89,807.59,751.94,808.09,751.98z"/>
	<path d="M548.29,634.05c0.21,2.52,0.73,5.07,0.52,7.56c-0.13,1.57-1.36,3.05-2.1,4.58c-0.96-1.38-2.54-2.66-2.78-4.16
		c-0.88-5.39-1.48-10.85-1.81-16.3c-0.1-1.69,1.01-3.45,1.57-5.17c1.71,0.71,4.08,0.94,5,2.21c4.66,6.42,8.88,13.16,13.43,19.66
		c1,1.43,2.74,2.35,4.15,3.5c0.52-1.52,1.57-3.07,1.47-4.55c-0.58-8.1-1.54-16.18-2.09-24.28c-0.09-1.4,1.16-2.89,1.8-4.33
		c0.76,1.25,1.97,2.43,2.2,3.77c1.33,7.84,2.53,15.71,3.56,23.6c0.32,2.44,0.46,5.13-0.27,7.4c-0.69,2.14-2.31,4.95-4.11,5.49
		c-1.85,0.55-5.15-0.65-6.53-2.21c-3.36-3.84-5.95-8.34-8.89-12.55c-1.13-1.63-2.37-3.18-3.55-4.77
		C549.33,633.67,548.81,633.86,548.29,634.05z"/>
	<path d="M308.66,208c2.83,1.16,5.61,2.3,9.3,3.81c-0.58-7.16-1-13.21-1.58-19.25c-0.79-8.24-1.78-16.45-2.52-24.69
		c-0.24-2.75,1.63-3.24,3.55-1.95c1.89,1.27,3.29,3.24,5.1,4.66c3,2.35,6.18,4.46,9.21,6.78c1.1,0.84,1.97,1.98,2.95,2.99
		c-0.38,0.6-0.75,1.2-1.13,1.8c-4.79-2.11-9.59-4.22-14.7-6.47c-0.17,1.1-0.63,2.39-0.5,3.62c0.84,8.25,2.02,16.47,2.63,24.74
		c0.25,3.36,1.49,4.35,4.59,4.15c1.96-0.13,4.07-0.17,5.87,0.45c1.03,0.36,1.58,2.13,2.34,3.27c-1.05,0.63-2.03,1.61-3.16,1.81
		c-2.79,0.5-5.65,0.64-8.47,0.93c0.51,2.73,1.09,5.44,1.5,8.18c0.47,3.12,1.04,6.26,1.03,9.39c0,1.15-1.54,2.3-2.38,3.45
		c-0.97-1.05-2.61-2-2.79-3.18c-0.59-3.92-0.56-7.93-0.96-11.89c-0.3-2.97-1.65-4.52-5.14-4.71
		C307.2,215.51,305.6,212.25,308.66,208z"/>
	<path d="M213.3,81.74c-0.21,2.15-0.29,4.33-0.66,6.45c-0.83,4.7-3.83,6.92-8.44,7.94c-1.75,0.39-3.85,2.44-4.38,4.16
		c-0.56,1.85,0.14,5.83,0.99,6.03c2.29,0.56,5.68,0.49,7.34-0.89c6.27-5.18,12.01-11,18.02-16.51c0.85-0.78,2.11-1.12,3.17-1.66
		c0.15,1.37,0.93,3.14,0.36,4.04c-6.23,9.73-14.18,17.7-25.27,21.66c-5.12,1.83-9.63-1.86-9.8-7.46
		c-0.36-11.91,4.83-21.51,13.04-29.64c0.93-0.92,3.11-1.26,4.39-0.87c0.77,0.24,1.08,2.41,1.32,3.77c0.16,0.94-0.15,1.97-0.25,2.96
		C213.19,81.73,213.25,81.74,213.3,81.74z M209.1,85.12c-0.86-0.53-1.72-1.06-2.58-1.59c-1.13,1.87-2.26,3.74-3.38,5.61
		c0.98,0.26,2.53,1.04,2.84,0.69C207.23,88.44,208.09,86.72,209.1,85.12z"/>
	<path d="M616.38,478.66c-1.51,0.95-2.92,2.48-4.54,2.74c-5.18,0.85-5.83,4.25-5.26,8.41c0.86,6.26,1.89,12.5,2.81,18.75
		c0.19,1.31,0.6,2.72,0.3,3.93c-0.27,1.05-1.4,1.88-2.16,2.8c-0.55-0.9-1.41-1.74-1.59-2.71c-1.6-8.64-3.21-17.29-4.52-25.97
		c-0.43-2.85-1.76-2.78-4.06-2.82c-1.72-0.03-3.41-1.45-5.12-2.24c1.38-1.3,2.59-3.34,4.19-3.73c3.18-0.79,3.47-2.14,2.73-4.99
		c-2.61-10.1-5.07-20.24-7.29-30.43c-0.31-1.41,1.05-3.19,1.63-4.79c1.1,1.16,2.86,2.15,3.19,3.5c2.42,9.82,4.66,19.68,6.74,29.58
		c1.01,4.81,3.52,6.86,8.44,6.09c1.3-0.2,2.7,0.25,4.05,0.4C616.08,477.66,616.23,478.16,616.38,478.66z"/>
	<path d="M673.62,220.98c-2.56,0-5.13,0.12-7.69-0.03c-3.96-0.22-6.19,1.27-6.66,5.45c-0.5,4.45-1.2,8.91-2.21,13.27
		c-0.35,1.51-1.86,2.74-2.85,4.1c-0.47-1.57-1.47-3.19-1.32-4.7c0.38-3.79,1.44-7.51,1.92-11.3c0.53-4.2-0.68-5.18-4.2-3.23
		c-3.3,1.83-5.35,1.3-7.44-1.8c-1.25-1.85-3.55-2.95-5.01-4.7c-0.97-1.17-1.44-2.84-1.78-4.37c-0.05-0.24,2.09-1.53,2.69-1.24
		c1.67,0.8,3.87,1.91,4.38,3.4c0.62,1.84-0.77,4.61,2.69,4.64c3.74,0.03,9.54-4.27,9.5-6.96c-0.13-8.47-0.28-16.94-0.59-25.41
		c-0.09-2.52-0.31-4.93,3.01-5.1c3.97-0.2,2.23,2.76,2.23,4.6c0,8.3-0.29,16.61,0.1,24.89c0.07,1.39,2.78,3.11,4.6,3.85
		c2.88,1.16,6.05,1.61,9.1,2.36C673.94,219.46,673.78,220.22,673.62,220.98z"/>
	<path d="M124.14,330.25c3.33-1.13,5.32-0.21,5.98,3.18c0.09,0.49,0.07,1.1,0.36,1.44c1.46,1.73,3,3.4,4.51,5.08
		c0.46-2.11,0.85-4.24,1.39-6.34c0.38-1.49,0.96-2.92,1.45-4.38c1.38,1.3,3.85,2.52,3.95,3.92c0.53,6.94,0.63,13.94,0.42,20.9
		c-0.05,1.75-1.85,3.45-2.85,5.17c-1.31-1.39-2.75-2.68-3.9-4.19c-0.67-0.89-0.6-2.39-1.34-3.17c-1.11-1.16-2.63-1.92-3.98-2.85
		c-0.52,1.36-1.49,2.73-1.46,4.08c0.07,4.48,0.65,8.96,0.72,13.44c0.02,1.52-0.57,3.32-1.51,4.47c-0.58,0.71-2.52,0.87-3.53,0.47
		c-0.58-0.23-0.8-2.09-0.7-3.18c0.19-1.95,1.12-3.86,1.08-5.78c-0.2-9.79-0.62-19.57-0.92-29.36
		C123.77,332.2,124.02,331.23,124.14,330.25z"/>
	<path d="M177.05,633.25c-1.84-0.88-4.11-1.35-5.44-2.72c-2.75-2.84-4.98-6.17-7.45-9.28c-2.13-2.67-3.97-3.92-6.31,0.12
		c-3.25,5.62-8.12,6.61-12.1,1.61c-5.73-7.18-10.43-15.21-15.19-23.11c-0.68-1.12,0.78-3.53,1.24-5.35c1.15,1.33,2.49,2.54,3.4,4.02
		c3.97,6.46,7.61,13.14,11.87,19.39c1.06,1.56,4.16,2.73,6.03,2.4c1.3-0.23,2.82-3.27,2.95-5.15c0.28-3.9-0.16-7.87-0.59-11.79
		c-0.27-2.46-1.39-4.85-1.5-7.3c-0.07-1.48,1.07-3.02,1.67-4.53c1.02,1.22,2.7,2.32,2.95,3.69c2.01,10.86,6.53,20.55,13.2,29.26
		c1.88,2.45,4.16,4.6,6.25,6.88C177.71,632.03,177.38,632.64,177.05,633.25z"/>
	<path d="M340.26,744.85c1.13-1.95,2.34-3.85,3.38-5.85c2.59-4.96,6.32-5.72,10.23-2.01c4.4,4.17,7.59,19.27,4.08,25.82
		c-1.01-2.69-2.16-5.34-2.98-8.08c-1-3.33-1.47-6.85-2.7-10.08c-0.53-1.39-2.41-2.26-3.67-3.37c-0.92,1.2-2.27,2.26-2.67,3.61
		c-1.09,3.66-1.61,7.49-2.69,11.15c-0.39,1.33-1.74,2.38-2.65,3.56c-1.18-1.16-3.05-2.13-3.41-3.5c-2.41-8.99-4.44-18.08-6.71-27.11
		c-0.92-3.69-2.39-7.26-3.05-10.98c-0.27-1.54,0.93-3.33,1.47-5.01c1.36,1.29,3.49,2.36,3.93,3.91c1.27,4.45,1.8,9.11,2.74,13.66
		c0.94,4.52,2.03,9.01,3.06,13.51C339.15,744.34,339.7,744.6,340.26,744.85z"/>
	<path d="M680.27,758.82c-2.16-1.3-3.73-2.33-5.38-3.24c-5.49-3.05-11.14-5.86-16.48-9.16c-3.66-2.26-3.91-5.69-1.12-8.93
		c4.14-4.8,8.42-9.63,15.37-9.98c1.62-0.08,3.3,1.13,4.95,1.75c-1.43,1.07-2.77,2.3-4.31,3.18c-3.52,2-7.22,3.69-10.68,5.78
		c-3.05,1.84-2.01,3.78,0.45,5.25c6.54,3.91,13.19,7.65,19.68,11.64c1.7,1.05,2.98,2.77,4.45,4.19c-1.4,1.3-2.64,2.84-4.21,3.87
		c-7.69,4.99-15.85,7.56-24.12,1.79c-3.28-2.28-5.63-5.96-8.18-9.18c-0.49-0.62,0.04-2.06,0.1-3.12c1.15,0.27,2.35,0.42,3.43,0.88
		c0.52,0.22,0.84,1,1.18,1.57C661,764.61,669.9,766.26,680.27,758.82z"/>
	<path d="M317.85,756.99c-0.88-1.16-2.06-2.21-2.57-3.51c-1.14-2.93-2.32-5.94-2.8-9.02c-0.59-3.78-2.18-5.39-6.12-5.7
		c-2.08-0.16-4.24-1.9-5.97-3.38c-2.89-2.47-5.74-5.1-8.07-8.09c-1.18-1.52-1.19-3.95-1.73-5.98c1.83,0.94,4.28,1.42,5.38,2.9
		c3.44,4.65,6.71,9.22,13.84,9.23c0-1.14,0.24-2.41-0.04-3.56c-2.03-8.22-4.24-16.4-6.19-24.63c-0.31-1.3,0.38-2.84,0.61-4.27
		c1.43,1.01,3.77,1.76,4.15,3.07c1.71,5.88,3.04,11.89,4.19,17.92c1.61,8.44,1.53,8.49,10.9,4.72c-1.14,2.75-1.34,5.09-2.56,5.88
		c-5.93,3.88-4.86,9.09-3.44,14.56c0.79,3.03,1.4,6.12,2.09,9.18C318.95,756.54,318.4,756.77,317.85,756.99z"/>
	<path d="M469.84,213.12c-1.66,0-2.71,0.22-3.61-0.06c-1.13-0.35-2.14-1.1-3.2-1.67c0.77-1.12,1.38-3.04,2.34-3.23
		c4.93-1,5.68-3.94,5.28-8.42c-0.82-9.07-1.19-18.18-1.55-27.29c-0.04-1.02,1.23-3.01,1.74-2.96c1.23,0.12,2.99,0.92,3.4,1.91
		c0.66,1.6,0.5,3.58,0.52,5.4c0.07,8.14-0.04,16.29,0.25,24.42c0.04,0.98,1.99,2.29,3.29,2.7c1.32,0.42,2.96-0.31,4.4-0.11
		c0.74,0.1,1.57,1.01,1.92,1.76c0.15,0.32-0.79,1.64-1.32,1.7c-10.52,1.16-9.06,9.23-9.29,16.17c-0.2,5.98,0.04,11.97-0.18,17.95
		c-0.05,1.36-1.22,2.68-1.87,4.02c-0.77-1.19-2.18-2.37-2.2-3.57c-0.14-7.6,0.03-15.2,0.09-22.81
		C469.85,217.13,469.84,215.21,469.84,213.12z"/>
	<path d="M744.67,70.67c0,7.07,0.15,13.5-0.06,19.93c-0.12,3.8-0.68,7.59-1.24,11.36c-0.58,3.91-3.62,4.83-6.7,4.07
		c-3.8-0.94-2.06-3.92-1.22-6.1c2.76-7.13,1.32-14.06-0.71-21c-0.89-3.06-1.84-6.1-2.76-9.14c0.5-0.3,1-0.61,1.5-0.91
		c2.05,1.7,4.1,3.41,6.78,5.63c0.64-2.58,1.23-4.44,1.53-6.33c0.75-4.72,2.81-5.98,6.51-2.81c4.45,3.81,8.1,8.55,12.74,13.59
		C751.69,82.48,751.78,71.51,744.67,70.67z"/>
	<path d="M79.12,457.43c-1.55-12.09-3.03-23.59-4.56-35.47c5.21,0.3,5.09,3.44,5.39,6.13c0.97,8.9,1.86,17.8,2.84,27.4
		c4.95-1.27,9.58-2.46,14.21-3.65c0.31,0.8,0.62,1.61,0.93,2.41c-2.98,1.68-5.82,3.75-8.99,4.94c-3.59,1.35-4.85,3.22-4.25,7.08
		c1.16,7.53,1.96,15.12,2.71,22.7c0.13,1.33-0.74,2.76-1.14,4.14c-0.96-1.07-2.59-2.03-2.78-3.23c-1.15-7.21-2.34-14.46-2.76-21.73
		c-0.21-3.72-1.29-4.91-4.87-5.04c-2.51-0.09-6.95,1.63-7.04-2.3c-0.1-4.45,4.52-2.22,7.11-2.81
		C76.86,457.79,77.81,457.66,79.12,457.43z"/>
	<path d="M763.19,494.15c-2.69,0-5.09,0-7.5,0c-0.27-0.46-0.54-0.92-0.81-1.38c1.52-1.23,2.91-3.24,4.59-3.52
		c3.77-0.63,4.52-2.55,4.11-5.87c-1.09-8.87-2.15-17.75-2.99-26.65c-0.14-1.47,0.89-3.05,1.38-4.58c1.34,1.15,3.7,2.17,3.87,3.47
		c1.06,8.38,1.92,16.8,2.26,25.23c0.22,5.38,0.84,6.16,6.06,4.31c3.31-1.18,6.64-2.33,9.96-3.49c0.3,0.5,0.6,0.99,0.91,1.49
		c-1.23,1.32-2.34,2.8-3.74,3.91c-1.15,0.9-2.59,1.74-4,1.95c-10.09,1.47-10.31,8.93-10.42,16.63c-0.04,3.14-0.39,6.3-0.83,9.42
		c-0.18,1.3-0.93,2.53-1.42,3.79c-0.48-0.09-0.95-0.18-1.43-0.27C763.19,510.7,763.19,502.81,763.19,494.15z"/>
	<path d="M660.54,630.96c0.15,3.02,0.33,6.03,0.44,9.05c0.05,1.47,0.27,3.06-0.19,4.39c-0.28,0.79-1.7,1.52-2.67,1.62
		c-0.67,0.07-2.12-1.05-2.08-1.55c0.66-8.31,1.49-16.61,2.3-24.92c0.01-0.08,0.26-0.14,1.74-0.88c4.91,6.64,10,13.52,15.09,20.41
		c0.57-0.32,1.13-0.63,1.7-0.95c0.73-7.35,0.35-14.57-2.33-21.71c-0.86-2.3-3.73-5.29,0.09-7.2c0.54-0.27,4.29,3.45,4.66,5.65
		c1.26,7.44,2.11,15.03,2.14,22.56c0.01,2.14-2.89,5.21-5.17,6.22c-3.24,1.44-5.78-0.83-7.52-3.97c-1.83-3.3-4.13-6.34-6.23-9.5
		C661.85,630.44,661.19,630.7,660.54,630.96z"/>
	<path d="M913.14,518.52c-0.26-4.65-0.55-9.3-0.75-13.95c-0.06-1.49-0.19-3.12,0.33-4.45c0.71-1.83,2-3.43,3.04-5.13
		c1.46,1.12,3.31,1.98,4.28,3.43c1.94,2.88,3.41,6.08,5.07,9.14c0.59-0.17,1.17-0.33,1.76-0.5c-0.11-2.16-0.05-4.34-0.36-6.46
		c-0.36-2.45-1.71-4.96-1.38-7.26c0.32-2.21,2.23-4.19,3.45-6.28c0.85,1.92,2.23,3.79,2.46,5.78c0.83,7.09,1.4,14.21,1.78,21.34
		c0.14,2.63,0.98,6.62-2.97,6.73c-2.12,0.06-4.65-2.42-6.39-4.3c-1.56-1.69-2.31-4.14-3.92-7.23c-1.58,3.88-2.71,6.63-3.83,9.39
		C914.83,518.67,913.99,518.59,913.14,518.52z"/>
	<path d="M986.12,633.94c-0.57-8.71-1.13-17.43-1.7-26.14c0.58-0.1,1.17-0.21,1.75-0.31c0.63,0.81,1.73,1.56,1.83,2.43
		c1,8.71,1.88,17.43,2.68,26.16c0.1,1.1-0.17,2.48-0.79,3.36c-1.42,2-3.16,3.76-4.77,5.62c-1.42-1.74-3.01-3.37-4.21-5.26
		c-1.33-2.09-2.15-4.52-3.5-6.6c-0.72-1.11-2.1-1.8-3.18-2.68c-0.47,1.43-1.31,2.86-1.32,4.29c-0.03,2.31,1.02,4.73,0.58,6.89
		c-0.33,1.64-2.27,2.95-3.5,4.4c-0.64-1.61-1.8-3.22-1.81-4.83c-0.03-4.64,0.18-9.31,0.78-13.91c0.28-2.11,1.7-4.07,2.61-6.1
		c2,0.97,4.36,1.56,5.92,3.01c1.77,1.64,2.84,4.05,4.2,6.13c0.84,1.29,1.64,2.61,2.45,3.91
		C984.8,634.21,985.46,634.08,986.12,633.94z"/>
	<path d="M968.2,338.95c0.83-2.26,1.49-4.61,2.57-6.74c0.62-1.23,1.94-2.1,2.94-3.14c0.69,1.71,2.36,3.82,1.86,5.05
		c-1.36,3.33-3.3,6.57-5.65,9.3c-3.08,3.58-4.05,7.07-1.88,11.36c2.92,5.78,5.76,11.61,8.58,17.44c0.33,0.68,0.31,1.54,0.51,2.6
		c-5.62,1.06-4.59-5.73-8.75-6.61c-0.41,2.02-0.82,4.07-1.41,7.02c-1.1-1.41-1.9-1.95-1.97-2.58c-1.11-9.73-2.15-19.47-3.17-29.21
		c-0.71-6.78-1.37-13.56-2.03-20.35c-0.11-1.16-0.46-2.45-0.09-3.46c0.43-1.19,1.52-2.14,2.33-3.19c0.77,1.05,2.11,2.05,2.2,3.14
		c0.35,4.47,0.12,8.99,0.49,13.46c0.17,2.05,1.26,4.02,1.94,6.02C967.18,339.02,967.69,338.98,968.2,338.95z"/>
	<path d="M465.9,74.56c-4.29-2.78-8.59-5.56-13.58-8.8c-0.57,3.76-1.18,6.61-1.39,9.48c-0.85,11.36-3.34,22.67-0.25,34.15
		c0.96,3.56,0.45,7.6,0.09,11.38c-0.11,1.13-1.96,2.1-3.02,3.14c-0.69-1.11-2-2.24-1.96-3.33c0.31-10.17-1.9-19.39-9.08-27.06
		c-0.84-0.9-0.81-2.61-1.19-3.95c0.41-0.41,0.83-0.83,1.24-1.24c3.12,2.15,6.24,4.3,9.64,6.65c-0.99-10.52,0.61-20.22,3.52-29.82
		c1.14-3.76,3.32-4.26,6.41-2.96c5.1,2.14,7.81,6.55,10.75,10.7C466.69,73.46,466.3,74.01,465.9,74.56z"/>
	<path d="M442.57,756.2c-0.9-1.31-2.2-2.5-2.61-3.95c-1.11-4-2.33-8.08-2.58-12.18c-0.22-3.62-1.56-4.72-4.85-4.33
		c-0.82,0.1-1.87,0.29-2.45-0.1c-1.21-0.81-2.18-1.98-3.25-3.01c1.22-0.96,2.5-2.8,3.65-2.72c4.6,0.31,4.82-1.24,3.68-5.26
		c-2.21-7.8-3.76-15.79-5.36-23.75c-0.17-0.85,1.08-1.98,1.66-2.99c1.16,0.83,3.11,1.48,3.36,2.53c1.69,7.12,3.06,14.31,4.46,21.5
		c1.31,6.75,2.47,7.65,9.38,6.65c2.58-0.37,5.12-1,8.87-1.74c-0.78,1.99-0.94,3.29-1.66,3.99c-0.91,0.88-2.27,1.33-3.49,1.85
		c-3.2,1.39-7.83,1.89-9.25,4.3c-1.42,2.41,0.3,6.71,0.78,10.16c0.38,2.72,0.97,5.42,1.47,8.13
		C443.77,755.59,443.17,755.89,442.57,756.2z"/>
	<path d="M630.15,615.31c5-1.14,6.6,1.46,7.02,4.61c0.78,5.88,3.88,10.06,8.3,13.68c1.11,0.91,1.55,2.63,2.3,3.98
		c-0.42,0.4-0.84,0.79-1.27,1.19c-1.79-0.97-3.76-1.72-5.34-2.96c-4.34-3.39-4.02-3.35-6.63,1.88c-1.19,2.39-3.27,4.69-5.53,6.13
		c-4.97,3.16-10.06,2-12.64-3.25c-2.16-4.38-3.77-9.26-4.46-14.08c-0.95-6.69,2.67-11.12,9.25-12.53c1.24-0.26,2.91,0.21,3.98,0.94
		c0.65,0.45,1.07,2.53,0.64,2.99c-0.74,0.8-2.21,1.17-3.4,1.26c-5.03,0.37-7.64,2.81-6.49,7.66c0.96,4.05,2.86,8.11,5.32,11.45
		c0.92,1.25,5.16,1.5,6.85,0.48c4.63-2.78,6.29-10.83,4.28-16.07C631.41,620.32,630.88,617.83,630.15,615.31z"/>
	<path d="M742.54,238.52c0.39-5.04,0.1-11.71,6.08-16.21c4.81-3.62,13.44-0.67,15.16,4.93c0.6,1.94,2.15,3.62,3.42,5.3
		c5,6.58,5.28,11.04,0.92,16.63c-4.26,5.47-12.38,7.84-18.32,5.31C743.29,251.68,742.69,245.9,742.54,238.52z M746.06,237.73
		c0.4,2.6,0.1,5.15,1.2,6.73c1.73,2.5,4.05,5.27,6.74,6.29c4.41,1.68,8-1.09,10.61-4.61c2.25-3.05,2.11-6.4-0.44-9.15
		c-3.8-4.1-7.83-8.01-11.98-11.74c-0.47-0.43-3.28,0.5-3.51,1.26C747.5,230.27,746.83,234.2,746.06,237.73z"/>
	<path d="M114.91,468.74c2.38-2.04,3.53-3.62,5.04-4.16c1.63-0.58,4.68-0.94,5.26-0.11c4.65,6.65,7.05,14.21,7.47,22.34
		c0.03,0.51-0.65,1.05-1.78,2.78c-1.28-2.72-2.38-4.56-3.03-6.54c-0.88-2.68-1.17-5.56-2.2-8.16c-0.51-1.28-2.02-2.68-3.29-2.94
		c-0.83-0.17-2.15,1.53-3.08,2.56c-1.84,2.05-3.56,4.2-5.33,6.31c-0.82-2.54-1.88-5.04-2.41-7.64c-2.47-12.17-4.79-24.38-7.18-36.57
		c-0.13-0.64-0.67-1.32-0.56-1.88c0.26-1.29,0.82-2.52,1.25-3.78c1.01,0.88,2.68,1.62,2.92,2.67c2.2,9.7,4.16,19.46,6.15,29.21
		C114.44,464.26,114.53,465.7,114.91,468.74z"/>
	<path d="M507.28,626.32c-0.79-5.28,1.08-9.54,5.65-11.8c2.37-1.18,5.84-1.75,8.22-0.91c3.23,1.13,3.76,4.97,2.23,7.7
		c-1.65,2.94-4.31,5.41-6.86,7.72c-1.39,1.26-5.07,2.11-4.97,2.55c0.53,2.47,1.36,5.41,3.15,6.93c1.53,1.29,4.84,1.77,6.75,1.03
		c3-1.17,5.49-3.65,8.16-5.61c0.94-0.69,1.7-1.68,2.71-2.17c0.77-0.37,1.82-0.14,2.75-0.18c0.01,0.91,0.42,2.27-0.02,2.65
		c-4.61,3.95-8.96,8.46-14.2,11.32c-3.65,1.99-8.2-0.12-10.08-4.17c-2.16-4.68-3.4-9.8-5.03-14.72
		C506.25,626.53,506.76,626.43,507.28,626.32z M514.3,625.75c1.76-2.76,3.06-4.65,4.08-6.67c0.11-0.21-2.02-1.87-2.08-1.81
		c-1.64,1.62-3.22,3.31-4.56,5.17C511.58,622.66,512.86,623.91,514.3,625.75z"/>
	<path d="M923.93,632.48c-0.24,1.05-0.18,1.88-0.55,2.2c-6.4,5.43-13.74,8.66-22.21,8.17c-1.66-0.1-4.4-2.28-4.55-3.72
		c-0.62-5.97-0.94-12.08-0.3-18.03c0.24-2.28,2.93-5.11,5.21-6.15c2.87-1.3,7.21-2.33,9.5-1.02c1.91,1.1,2.83,5.92,2.33,8.77
		c-0.74,4.24-4.28,6.34-8.87,6.45c-1.62,0.04-3.21,1.13-4.81,1.73c1.05,2.28,1.65,5.03,3.34,6.64c0.95,0.9,3.81,0.22,5.63-0.33
		c4.11-1.25,8.11-2.91,12.18-4.32C921.65,632.59,922.61,632.63,923.93,632.48z M900.26,624.26c3.97,0.52,7.26,0.69,8.6-3.28
		c0.26-0.78-1.11-3.01-1.91-3.11C902.84,617.37,901.28,620.12,900.26,624.26z"/>
	<path d="M505.72,740.3c-0.16-1.53-0.47-2.53-0.3-3.44c0.19-1.03,0.81-1.99,1.25-2.97c0.96,0.45,2.06,0.74,2.85,1.4
		c0.73,0.61,1.13,1.62,1.69,2.44c4.53,6.58,9.07,13.16,13.82,20.05c-2.1,1.44-4.42-0.04-6.67-1.74c-2.08-1.58-4.11-3.23-6.47-5.09
		c-0.64,1.04-1.1,1.66-1.43,2.33c-2.91,5.82-6.01,7.29-12.09,5.7c-5.15-1.35-8.62-6.3-8.13-11.66c0.36-3.92,2.79-5.94,6.45-6.44
		C499.45,740.49,502.26,740.5,505.72,740.3z M507.82,744.99c-3.27,0-6.39-0.16-9.47,0.09c-1.09,0.09-2.67,0.95-3,1.84
		c-0.44,1.18-0.34,3.61,0.34,3.98c2.5,1.33,5.78,3.37,7.93,2.65C506.61,752.52,508.99,749.33,507.82,744.99z"/>
	<path d="M912.64,297.28c0.62,1.65,1.7,3.26,1.8,4.94c1.37,22.39,2.51,44.8,3.97,67.19c0.24,3.74,1.89,7.37,2.63,11.1
		c0.27,1.36-0.19,2.88-0.32,4.32c-1.22-0.93-3.19-1.64-3.52-2.82c-1.4-4.92-2.92-9.94-3.28-14.99c-1.53-21.55-2.68-43.12-3.9-64.69
		c-0.09-1.53,0.37-3.1,0.57-4.65C911.28,297.55,911.96,297.41,912.64,297.28z"/>
	<path d="M541.85,515.25c-3.85,1.36-7.18,2.66-10.6,3.7c-4.79,1.47-12.21-1.29-14.33-6.59c-2.62-6.55-3.86-13.66-5.5-20.58
		c-0.17-0.71,1.01-1.73,1.56-2.61c0.92,0.98,2.25,1.81,2.68,2.98c2.03,5.56,3.43,11.38,5.85,16.75c1.02,2.27,3.84,3.89,6.13,5.37
		c1.06,0.69,3.64,0.92,4.04,0.34c0.8-1.15,1.13-3.23,0.64-4.55c-1.92-5.11-4.4-10.02-6.3-15.14c-0.54-1.46,0.16-3.38,0.29-5.1
		c1.53,0.68,3.84,0.95,4.46,2.12c3.93,7.45,7.51,15.1,11.15,22.71C542.08,515.01,541.79,515.59,541.85,515.25z"/>
	<path d="M468.4,239.13c-4.53,3.62-7.81,1.88-9.9-1.11c-2.57-3.69-4-2.64-6.31,0.04c-3.63,4.2-9.21,4.11-13.08,0.12
		c-4.11-4.24-4.58-9.77-1.36-16.09c2.38-4.68,5.8-6.19,12.09-5.48c1.29,0.15,2.89,0.46,3.89-0.11c5.49-3.1,5.21,0.33,5.19,4.15
		C458.89,227.98,460.06,234.87,468.4,239.13z M448.52,220.88c-6.22,0.11-8.26,2.21-8.24,8.5c0.01,4.11,2.6,6.93,6.26,6.82
		c3.97-0.12,7.07-5,7.3-10.79C454,221.31,451.76,220.66,448.52,220.88z"/>
	<path d="M388.16,102.13c0.26,1.8,0.59,2.5,0.39,2.95c-4.03,9.06-8.4,17.79-18.91,21.13c-6.34,2.01-10.29,0.17-12.02-6.2
		c-2.34-8.65-1.74-17.14,2.63-25.02c0.89-1.61,4.03-3.56,5.23-3.08c2.2,0.87,4.93,3.25,5.26,5.34c0.5,3.15-0.68,6.66-1.61,9.88
		c-0.2,0.68-2.43,0.77-3.72,1.13c-0.12-1.29-0.55-2.64-0.3-3.85c0.39-1.91,1.4-3.7,1.79-5.61c0.14-0.69-0.57-2.05-1.19-2.27
		c-0.66-0.23-1.9,0.3-2.49,0.89c-4.03,4.04-4.07,18.45-0.1,22.57c2.76,2.86,6.13,3.17,8.86,0.5c4.47-4.38,8.48-9.23,12.65-13.91
		C385.67,105.42,386.56,104.16,388.16,102.13z"/>
	<path d="M206.19,626.27c-0.68,1.29-1.13,2.8-2.08,3.85c-6.26,6.89-16.4,6.75-21.98-0.63c-5.98-7.9-9.8-16.6-6.85-26.87
		c1.18-4.09,3.69-6.82,8.27-6.34c3.02,0.32,6.09,1.2,6.45,5.03c0.42,4.49-0.59,8.14-5.49,9.91c-5.4,1.95-5.93,3.72-3.35,8.83
		c4.17,8.26,8.69,11.33,15.85,9.73c2.83-0.63,5.31-2.88,7.94-4.39C205.37,625.68,205.78,625.98,206.19,626.27z M179.18,608.14
		c2.7-1.59,4.72-2.78,6.73-3.97c-1.04-1.01-2.01-2.76-3.15-2.88C179.01,600.9,178.66,603.49,179.18,608.14z"/>
	<path d="M681.61,273.25c0.6-1.96,1.02-3.99,1.83-5.85c3.03-6.99,6.15-13.95,9.3-20.88c1.12-2.46,0.97-3.91-2.09-4.69
		c-5.78-1.48-6.45-7.09-8.46-11.49c-0.27-0.58,0.82-2.54,1.44-2.62c1.3-0.17,2.73,0.42,4.05,0.86c0.3,0.1,0.45,0.85,0.53,1.33
		c0.5,3.02,0,7.38,4.09,7.32c2.07-0.03,4.09-3.61,6.11-5.6c0.35-0.35,0.54-0.9,0.94-1.15c1.36-0.87,2.78-1.65,4.18-2.46
		c0.29,1.74,1.24,3.69,0.76,5.17c-1.43,4.4-3.2,8.73-5.26,12.88c-4.18,8.45-8.61,16.78-13.03,25.11c-0.62,1.16-1.81,2.02-2.73,3.02
		C682.72,273.88,682.16,273.57,681.61,273.25z"/>
	<path d="M585.36,120.88c-0.89,7.18-5.73,10.2-11.35,7.23c-6.03-3.18-9.87-8.49-11.79-14.82c-0.73-2.4,1.01-5.43,0.98-8.17
		c-0.04-4.45,3.27-3.5,5.77-4.41c2.1-0.76,3.77-2.65,5.71-3.91c3.51-2.28,6.73-0.66,7.01,3.47c0.39,5.6-3.25,9.51-8.86,9.77
		c-1.7,0.08-3.38,0.7-5.07,1.07c0.65,1.78,1.13,3.67,2.02,5.32c0.78,1.44,2.08,2.59,3.06,3.93c2.8,3.83,5.85,5.41,9.87,1.51
		C583.29,121.32,584.34,121.25,585.36,120.88z"/>
	<path d="M851.12,348.69c1.5-0.63,2.97-1.7,4.51-1.8c3.79-0.26,3.65-2.57,3.31-5.26c-0.86-6.76-1.69-13.53-2.49-20.29
		c-0.16-1.32-0.53-2.8-0.1-3.94c0.49-1.34,1.75-2.4,2.68-3.58c0.71,1.27,1.94,2.5,2.03,3.81c0.46,6.8,0.63,13.61,0.88,20.42
		c0.15,4.13,2.02,4.33,5.18,2.49c2.56-1.49,5.32-2.63,8-3.93c0.47,0.75,0.94,1.5,1.41,2.25c-3.11,2.33-5.96,5.24-9.41,6.85
		c-4.21,1.97-4.71,4.65-4.24,8.77c0.93,8.09,1.4,16.25,1.8,24.39c0.06,1.26-1.24,2.59-1.91,3.89c-0.58-1.33-1.6-2.64-1.68-4
		c-0.46-7.46-0.76-14.94-0.98-22.42c-0.08-2.58-0.89-4.05-3.7-4.23c-1.23-0.08-2.42-0.85-3.63-1.3
		C852.23,350.1,851.67,349.39,851.12,348.69z"/>
	<path d="M121.07,759.55c-1.27-0.54-2.74-0.82-3.76-1.65c-4.66-3.81-5.05-3.6-7.72,1.51c-1.23,2.35-3.33,4.71-5.63,5.88
		c-1.6,0.81-4.8,0.32-6.29-0.85c-3.81-2.98-6.43-16.4-4.24-20.6c0.75-1.43,2.97-3.34,4.06-3.08c2.22,0.51,4.13,2.36,6.17,3.65
		c-1,1.14-1.89,3.08-3.04,3.26c-2.73,0.42-4.77,0.82-3.54,4.19c1.21,3.3,0.35,8.33,6.17,7.99c0.82-0.05,2.06-0.84,2.29-1.56
		c1.77-5.47,4.68-10.84,2.09-16.87c-0.26-0.61-0.7-1.31-0.58-1.88c0.23-1.15,0.79-2.24,1.21-3.35c0.98,0.5,2.16,0.8,2.87,1.55
		c0.62,0.65,0.63,1.85,1.07,2.72c2.45,4.82,4.93,9.63,7.46,14.42c0.65,1.23,1.52,2.35,2.29,3.52
		C121.65,758.79,121.36,759.17,121.07,759.55z"/>
	<path d="M782.14,745.66c-4.03-1.94-7.08-3.41-10.13-4.88c-0.38,0.33-0.77,0.67-1.15,1c0.76,1.84,1.33,3.78,2.32,5.49
		c4.7,8.07,8.95,16.32,9.41,25.87c0.07,1.51-1.51,3.11-2.33,4.67c-1.09-1.2-2.48-2.25-3.18-3.65c-0.54-1.09-0.23-2.61-0.26-3.94
		c-0.06-3.2-0.51-5.7-4.9-4.57c-0.78,0.2-2.88-1.77-3.12-2.99c-1.04-5.18-1.33-10.51-2.41-15.67c-1.45-6.96-0.66-9.74,3.93-11
		C774.77,734.76,780.37,738.79,782.14,745.66z"/>
	<path d="M428.65,616.56c2.01,1.2,4.02,2.39,6.03,3.59c0.31-0.2,0.61-0.39,0.92-0.59c-0.8-2.23-2.19-4.44-2.26-6.69
		c-0.09-2.93-0.04-6.66,1.63-8.61c1.42-1.66,5.52-2.28,7.89-1.56c3.49,1.05,6.59,3.58,9.65,5.76c0.76,0.54,0.75,2.15,1.1,3.26
		c-1.18-0.03-2.49,0.28-3.51-0.14c-4.01-1.66-7.92-3.55-12.65-5.72c-0.77,7.34,0.83,12.57,4.21,17.26c1.87,2.6,2.93,4.69,0.74,7.98
		c-0.99,1.49,0.55,4.53,0.6,6.88c0.04,1.69-0.48,3.39-0.74,5.09c-1.29-1.04-3.04-1.82-3.78-3.16c-3.19-5.75-6.11-11.65-9.08-17.52
		c-0.81-1.6-1.48-3.26-2.22-4.89C427.67,617.17,428.16,616.87,428.65,616.56z"/>
	<path d="M206.52,234.14c-2.38,1.92-4.49,4.42-7.19,5.63c-6,2.68-12.14,5.56-18.52,6.67c-3.75,0.65-8.46-1.23-12.02-3.26
		c-5.39-3.07-0.98-7.89,0.12-11c1.69-4.78,5.48-8.89,8.77-12.96c0.74-0.92,3.13-0.5,4.76-0.69c0.11,1.57,0.91,3.6,0.22,4.62
		c-2.53,3.74-5.62,7.11-8.38,10.71c-0.91,1.19-2.15,2.77-1.97,3.97c0.18,1.16,1.88,2.72,3.14,2.98c7.8,1.61,15.14-0.01,21.98-3.97
		c2.54-1.47,4.98-3.09,7.47-4.64C205.45,232.84,205.99,233.49,206.52,234.14z"/>
	<path d="M397.55,756.91c1.6,0.16,4.57,0.67,7.54,0.68c1.24,0,2.49-1.08,3.74-1.66c-0.61-1.19-0.99-2.59-1.86-3.54
		c-3.09-3.37-6.46-6.49-9.52-9.88c-2.45-2.71-1.3-5.34,1.6-6.35c6.08-2.11,12.35-3.76,18.62-5.24c0.99-0.23,2.41,1.35,3.64,2.1
		c-1.23,1.01-2.33,2.57-3.72,2.92c-4.13,1.03-8.42,1.43-12.58,2.38c-3.79,0.86-3.43,3.09-1.11,5.29c1.43,1.36,3.03,2.81,4.83,3.44
		c5.52,1.95,5.38,5.84,4.29,10.45c-1.11,4.65-4.84,5.24-8.45,5.35c-3.79,0.12-7.66-0.34-11.39-1.07c-1.45-0.28-2.62-1.99-3.92-3.05
		c1.48-0.6,2.93-1.3,4.45-1.76C394.44,756.71,395.33,756.91,397.55,756.91z"/>
	<path d="M627.76,487.32c-0.61,1.86-1.58,3.69-1.72,5.58c-0.11,1.42,0.85,2.92,1.33,4.39c1.36-0.94,3.19-1.6,3.94-2.89
		c0.76-1.3,0.31-3.26,0.67-4.86c0.18-0.81,0.99-1.47,1.52-2.2c0.75,0.74,2.04,1.39,2.16,2.22c0.67,4.63,0.11,8.79-4.12,11.99
		c-1.67,1.26-3.81,4.35-3.29,5.55c0.98,2.25,3.52,4.79,5.8,5.23c2.15,0.42,5.16-1.26,7.12-2.85c2.27-1.84,3.79-4.59,6.13-7.57
		c0.79,1.7,1.3,2.27,1.26,2.81c-0.32,5.11-7.79,12.39-13.39,13.14c-5.3,0.71-11.58-3.38-12.7-9.7c-1.02-5.74-0.66-11.8-0.25-17.68
		c0.11-1.64,2.56-3.13,3.93-4.69C626.68,486.32,627.22,486.82,627.76,487.32z"/>
	<path d="M804.48,377.93c0.37,5.44-1.72,8.41-4.71,10.76c-8.24,6.47-19.64,4.05-26.38-5.49c-6.18-8.74-4.39-19.89,4.15-25.45
		c3.19-2.08,4.9,0.36,4.36,2.67c-0.85,3.66-2.36,7.58-4.8,10.32c-2.16,2.44-2.81,4-1.37,6.83c5.56,10.99,15.71,12.8,24.5,4.26
		C801.34,380.76,802.51,379.74,804.48,377.93z"/>
	<path d="M350.83,497.99c-1.96-0.78-4.17-1.2-5.81-2.41c-3.35-2.47-5.41-3.29-7.15,1.8c-1.9,5.57-8.13,7.89-13.58,5.49
		c-1.42-0.62-2.93-2.39-3.28-3.89c-1.78-7.77,4-15.07,11.76-17.4c5.68-1.7,8.11-0.43,10.54,4.75c1.79,3.82,5.46,6.77,8.29,10.11
		C351.35,496.95,351.09,497.47,350.83,497.99z M329.88,499.44c2.13-2.66,4.48-5.18,6.34-8.02c1.89-2.88,0.13-4.39-2.7-4.71
		c-5.41-0.61-6.35,3.62-7.82,7.37C324.42,497.31,325.86,498.35,329.88,499.44z"/>
	<path d="M857.73,777.94c2.93-0.97,7.22-1.09,8.48-3.1c2.19-3.51-1.07-6.63-3.62-9.38c-2.69-2.9-5.68-5.76-7.44-9.2
		c-1.14-2.22-1.48-6.64-0.11-7.98c2.98-2.93,7.24-4.6,11.1-6.53c0.33-0.17,1.61,1.57,2.45,2.42c-0.94,0.93-1.81,2.53-2.85,2.66
		c-2.83,0.34-6.62-0.03-6.61,3.52c0,2.66,1.92,6.04,4.05,7.84c4.57,3.87,8.62,7.55,8.91,14.12c0.25,5.62-2.16,8.85-7.88,9
		c-3.48,0.09-6.99-0.06-10.44-0.52c-1.3-0.17-2.45-1.51-3.67-2.31c1.45-0.6,2.86-1.37,4.37-1.75c0.91-0.23,1.97,0.14,2.96,0.24
		C857.52,777.29,857.62,777.62,857.73,777.94z"/>
	<path d="M629.7,237.96c-1.15,6.48-4.5,9.88-8.53,12.24c-13.9,8.16-27.85,0.12-34.35-9.45c-4.11-6.06,1.25-19.73,8.24-21.82
		c1.33-0.4,3.1,0.63,4.66,0.99c-0.95,1.09-1.7,2.58-2.9,3.21c-7.44,3.87-8.86,14.3-2.3,19.43c10.79,8.45,21.59,10.73,31.46-2.18
		C626.57,239.63,627.66,239.27,629.7,237.96z"/>
	<path d="M948.33,627.62c-0.45,3.96,0.27,8.32,4.48,11.07c6.93,4.53,7.35-4.36,11.3-6.07c2.04,3.75-1.1,10.34-5.42,11.86
		c-4.37,1.54-10.7-0.37-12.48-4.66c-3.17-7.64-3.43-15.54,0.95-22.95c2.23-3.76,6.33-4.59,9.31-2.39c2.72,2.01,3.76,7.48,1.07,9.76
		C955.42,626.02,952.08,626.33,948.33,627.62z"/>
	<path d="M756.63,97.1c0.41-5.48-0.95-10.43,4.16-12.26c4.93-1.76,9.51-0.24,13.19,3.61c0.69,0.72,1.46,1.36,2.16,2.07
		c5.7,5.74,5.83,7.09,1.39,14.69c-2.48,4.24-9.33,7.38-13.85,5.49c-2.29-0.96-4.48-3.45-5.53-5.77
		C756.9,102.16,756.92,98.81,756.63,97.1z M761.09,95.71c0.32,4.33-0.13,9.4,5.4,10.94c4.68,1.3,5.79-3.38,7.01-6.13
		c0.93-2.09,0.67-6.27-0.77-7.51c-2.54-2.18-6.39-2.87-9.75-4c-0.23-0.08-1.25,1.34-1.44,2.17
		C761.2,92.61,761.23,94.12,761.09,95.71z"/>
	<path d="M388.77,342.04c0.34,3.08,0.46,4.8,0.72,6.5c1.36,9.04,2.9,18.06,4,27.13c0.19,1.6-1.39,3.41-2.16,5.13
		c-1.16-1.59-2.8-3.02-3.39-4.79c-2.05-6.14-3.74-12.4-5.64-18.86c3.88-0.63,4.38-3.63,3.4-7.72c-0.49-2.05-0.43-4.36-0.04-6.44
		c0.33-1.8,1.05-4.13,2.38-4.96c1.03-0.64,3.62,0.22,4.91,1.2c2.9,2.2,5.65,4.7,7.99,7.47c1.02,1.21,0.89,3.38,1.28,5.12
		c-1.46-0.73-3.1-1.25-4.35-2.26c-1.53-1.24-2.64-3-4.12-4.32C392.62,344.24,391.2,343.57,388.77,342.04z"/>
	<path d="M167.08,480.91c-0.43,2.44-0.39,3.42-0.78,4.2c-2.95,5.95-13.28,11.12-19.85,9.84c-4.65-0.91-7.44-4.2-7.68-8.62
		c-0.27-5.08,0.25-10.28,1.09-15.31c0.62-3.75,10.21-8.24,13.77-6.85c2.91,1.14,2.66,3.31,0.86,5.09c-1.49,1.47-3.46,2.55-5.37,3.49
		c-4.65,2.29-8.09,8-6.47,12.74c0.65,1.9,3.98,4.37,5.71,4.11c4.38-0.66,8.62-2.57,12.78-4.31
		C162.93,484.55,164.37,482.96,167.08,480.91z"/>
	<path d="M368.9,376.57c-7.6,0.27-11.59-2.56-12.18-9.46c-0.34-3.98,0.38-8.33,1.73-12.12c1.79-5.03,7.5-6.19,12.04-2.92
		c6.32,4.57,7.77,11.6,7.68,18.58C378.08,376.58,372.41,375.93,368.9,376.57z M370.86,372.06c0.6-0.8,2.86-2.77,2.5-3.54
		c-1.97-4.26-4.43-8.33-7.1-12.2c-0.44-0.64-3.58-0.55-4.13,0.19C357.69,362.53,361.9,371.23,370.86,372.06z"/>
	<path d="M407,502.82c3.49-5.4,8.29-1.47,13.22-2.21c-1.26-1.51-1.95-2.73-2.98-3.52c-3.48-2.69-4.29-6.53-2.19-9.73
		c2.51-3.83,6.3-6.85,9.74-10c0.18-0.17,2.25,1.73,3.44,2.66c-0.88,1.09-1.82,3.14-2.64,3.09c-4.28-0.23-5.81,3.08-6.31,5.79
		c-0.33,1.79,1.8,4.68,3.6,6.09c3.63,2.84,7.87,4.9,11.69,7.51c1.32,0.9,2.16,2.49,3.22,3.76c-1.69,0.63-3.42,1.85-5.06,1.75
		c-2.93-0.19-5.8-1.22-8.72-1.81C418.56,505.09,413.12,504.04,407,502.82z"/>
	<path d="M199.65,295.43c5.15-2.1,5.24-1.61,5.66,3.81c1.45,18.5,1.32,37.18,6.03,55.33c0.58,2.22,0.83,4.58,0.79,6.88
		c-0.01,0.97-1.16,1.92-1.79,2.88c-0.74-0.77-1.95-1.45-2.14-2.34c-1.22-5.67-2.54-11.35-3.21-17.1
		C203.05,328.44,201.41,311.95,199.65,295.43z"/>
	<path d="M292.09,475.79c5.2-1.09,10.12-2.29,15.11-3.09c3-0.48,3.48,2.02,2.66,3.91c-1.96,4.5-4.45,8.76-6.69,13.14
		c-0.63,1.23-1.1,2.54-1.64,3.82c1.48,0.47,2.97,1.38,4.43,1.34c3.91-0.1,7.81-0.6,12.89-1.05c-4.38,6.34-16.77,9.24-21.28,6.04
		c-3.57-2.54-2.15-5.94-0.6-8.92c1.64-3.16,3.66-6.12,5.37-8.94C299.75,477.99,291.66,483.81,292.09,475.79z"/>
	<path d="M103.5,549.07c0.8,1.13,2.05,2.16,2.32,3.4c4.11,18.82,8.11,37.67,12.11,56.52c0.83,3.9,1.62,7.82,2.32,11.74
		c0.26,1.45,0.19,2.96,0.27,4.44c-0.67,0.16-1.33,0.33-2,0.49c-1.05-3.03-2.4-5.98-3.09-9.09c-4.39-19.79-8.67-39.61-12.91-59.44
		c-0.5-2.36-0.58-4.8-0.86-7.21C102.28,549.64,102.89,549.36,103.5,549.07z"/>
	<path d="M499.77,630.44c0.63,1.55,1.38,2.51,1.14,2.95c-2.93,5.44-7.14,9.65-13.18,11.3c-4.51,1.24-12.12-2.34-14.28-7.1
		c-1.87-4.12-3.01-8.76-3.38-13.26c-0.17-2.1,1.77-4.96,3.59-6.49c2.72-2.27,6.8-3.79,9.37-0.44c2.54,3.32-1.17,5.76-3.38,7.7
		c-3,2.62-7.29,4.42-3.05,9.29c4.55,5.23,11.49,6.6,15.64,2.99C494.6,635.33,496.84,633.15,499.77,630.44z"/>
	<path d="M728.95,365.77c-0.49,7.26,1.07,8.67,7.05,6.51c2.61-0.94,5.01-2.51,7.5-3.78c1.36-0.7,2.73-1.38,4.04-2.05
		c0.53,0.87,0.89,1.19,0.84,1.41c-1.41,5.78-14.64,12.66-20.02,10.36c-0.85-0.36-1.69-1.12-2.19-1.91
		c-3.26-5.17-2.16-20.48,1.75-25.2c2.26-2.73,4.69-3.27,6.84-0.01c1.35,2.05,2.66,4.28,3.29,6.61c1.57,5.77-0.92,8.53-6.85,8.07
		C730.57,365.73,729.92,365.77,728.95,365.77z M732.14,354.73c-0.52,0.06-1.04,0.13-1.56,0.19c-0.48,1.39-1.66,3.02-1.28,4.1
		c0.48,1.37,2.24,2.28,3.45,3.39c0.66-0.99,2-2.15,1.82-2.95C734.19,357.79,732.99,356.3,732.14,354.73z"/>
	<path d="M935.78,623.34c0.43-3.42,0.53-6.93,1.39-10.24c0.68-2.62,2.12-5.12,3.63-7.4c0.46-0.7,2.27-0.5,3.47-0.71
		c0.15,1.06,0.76,2.36,0.37,3.15c-4.36,8.75-5.1,18.15-5.61,27.68c-0.09,1.71-2,3.32-3.06,4.97c-1.26-1.35-3.04-2.48-3.68-4.08
		c-2.59-6.48-4.99-13.05-7.05-19.71c-0.43-1.39,0.91-3.33,1.44-5.02c1.21,1.12,2.82,2.02,3.54,3.39c1.42,2.72,2.33,5.69,3.46,8.56
		C934.37,623.74,935.08,623.54,935.78,623.34z"/>
	<path d="M357.26,75.72c-2.87,3.15-4.6,1.2-6.65-0.27c-1.48-1.06-3.37-1.54-5.08-2.28c-0.31,1.66-0.71,3.31-0.89,4.98
		c-0.25,2.31-0.55,4.65-0.42,6.95c0.35,6.22,0.84,12.43,1.44,18.63c0.27,2.8,1.23,5.54,1.33,8.33c0.05,1.31-1.2,2.66-1.87,3.99
		c-1.25-0.89-3.34-1.58-3.6-2.7c-1.39-6.11-3.37-12.36-3.14-18.48c0.29-7.7,2.22-15.39,4-22.96c1.53-6.52,4.44-7.07,9.1-2.26
		C353.32,71.56,355.13,73.48,357.26,75.72z"/>
	<path d="M608.28,754.69c-2.8,7.09-13.69,9.34-18.71,4.62c-5.75-5.4-7.32-13.62-3.54-20.55c1.04-1.91,2.96-3.72,4.92-4.62
		c1.52-0.7,4.08-0.49,5.5,0.4c1.02,0.64,1.67,3.36,1.18,4.63c-1.16,2.98-2.6,6.19-4.87,8.32c-3.31,3.1-2.51,5.47,0.69,6.94
		c2.65,1.22,5.92,1.31,8.94,1.45C604.17,755.97,605.99,755.18,608.28,754.69z"/>
	<path d="M369.24,237.97c-3.32-1.17-5.64-1.76-7.76-2.78c-2.33-1.12-3.96-1.59-5.96,0.94c-3.94,5-8.37,5.1-12.33,0.1
		c-2.86-3.6-4.98-7.82-7.17-11.9c-0.51-0.94,0.05-2.45,0.11-3.7c1.4,0.15,3.53-0.2,4.06,0.55c1.54,2.23,2.72,4.82,3.53,7.42
		c1.17,3.75,3.1,6.58,7.33,5.85c4.21-0.73,4.66-4.44,4.35-7.82c-0.33-3.68-1.29-7.3-1.98-10.94c0.42-0.3,0.85-0.61,1.27-0.91
		c1.19,0.97,3.01,1.7,3.48,2.95c2.28,6.12,4.63,12.08,10.37,15.97C369.08,234.05,368.87,235.51,369.24,237.97z"/>
	<path d="M430.97,226.82c-0.16,1.57-0.01,2.76-0.43,3.7c-2.86,6.37-15.55,13.71-22.59,13.46c-4.01-0.14-5.85-2.28-4.76-5.72
		c2.3-7.21,4.9-14.38,8.15-21.2c0.94-1.96,4.47-2.86,6.98-3.77c0.71-0.26,2.03,1.17,3.06,1.82c-0.77,0.93-1.35,2.33-2.33,2.72
		c-5.65,2.28-11.94,12.17-11.24,18.04c0.39,3.24,4.67,4.31,7.9,1.85c4.23-3.22,8.33-6.58,12.54-9.83
		C428.85,227.44,429.7,227.31,430.97,226.82z"/>
	<path d="M537.06,751.56c-2.75,2.57,1.11,10.1-6.58,7.35c0-4.51-0.1-8.94,0.03-13.35c0.11-3.82,2.32-4.47,5.4-3.01
		c1.16,0.55,2.01,1.72,3.13,2.38c1.21,0.71,2.57,1.16,3.86,1.72c0.42-1.32,1.11-2.63,1.19-3.97c0.16-2.81-0.17-5.64,0.05-8.44
		c0.07-0.84,1.3-1.59,2-2.37c0.79,0.73,2.26,1.46,2.25,2.17c-0.09,6.57,0.2,13.24-0.91,19.66c-0.77,4.41-3.31,4.4-6.52,0.91
		C539.84,753.4,538.34,752.54,537.06,751.56z"/>
	<path d="M465.57,738.66c-0.4-1.56-1.18-2.93-0.95-4.11c0.41-2.12,0.94-4.61,2.36-6c0.79-0.77,3.84-0.16,5.2,0.79
		c2.5,1.75,4.51,4.21,6.73,6.37c-0.39,0.52-0.78,1.05-1.16,1.57c-2.9-1.18-5.8-2.37-8.7-3.55c-0.52,0.37-1.04,0.75-1.56,1.12
		c2.41,6.74,4.92,13.44,7.17,20.23c0.64,1.93,0.84,4.13,0.68,6.16c-0.06,0.72-2.23,2.07-2.72,1.81c-2.14-1.17-4.56-2.46-5.83-4.4
		c-1.16-1.77-0.92-4.44-1.37-6.7c-0.38-1.9-0.41-4.06-1.37-5.62C461.2,741.75,461.05,741.84,465.57,738.66z"/>
	<path d="M69.6,711.56c4.43-1.4,5.7,0.3,6.26,3.2c2.73,13.99,5.53,27.97,8.26,41.96c0.76,3.91,1.39,7.84,1.01,11.99
		C76.21,750.68,77.17,730.16,69.6,711.56z"/>
	<path d="M368.8,213.64c2.44,0.86,4.5,1.58,7.09,2.5c0.22-2.52-0.01-4.77,0.73-6.63c0.45-1.14,3.15-2.65,3.55-2.33
		c3.89,3.01,7.5,6.38,11.19,9.64c-0.43,0.67-0.87,1.33-1.3,2c-1.81-0.66-3.61-1.37-5.44-1.98c-1.6-0.52-3.24-0.92-4.86-1.38
		c-0.36,1.72-1.03,3.44-1.02,5.16c0.03,5.48,0.53,10.96,0.36,16.42c-0.04,1.41-1.83,2.77-2.82,4.15c-0.83-1.28-2.22-2.5-2.39-3.87
		c-0.52-4.1-0.13-8.35-0.93-12.38C372.25,221.32,370.43,217.93,368.8,213.64z"/>
	<path d="M667.69,485.4c-1.62-0.56-2.65-1.01-3.72-1.26c-1.83-0.43-3.69-0.73-5.54-1.09c-0.11,1.91-0.64,3.92-0.25,5.72
		c1.49,6.96,3.54,13.81,4.82,20.8c0.49,2.65,2.74,7.06-1.93,7.95c-5.39,1.02-3.49-4.29-3.97-6.71c-1.66-8.44-2.86-16.98-3.83-25.52
		c-0.5-4.35,2.68-8.09,6.17-8.22C662.76,476.95,667.15,480.97,667.69,485.4z"/>
	<path d="M152.78,768.47c-0.19,6.67-3.54,10.13-8.65,10.76c-4.89,0.6-9.2-1.47-10.82-6.72c-1.87-6.07-2.84-12.47-3.68-18.8
		c-0.66-4.95,3.25-6.85,7.07-8.29c0.84-0.32,2.87,0.25,2.96,0.69c0.22,1.08-0.08,2.51-0.71,3.46c-1.54,2.34-4.8,4.49-4.81,6.72
		c-0.02,4.65,0.96,9.59,2.76,13.9c1.99,4.78,8.05,4.99,11.91,1.2C149.97,770.25,151.45,769.44,152.78,768.47z"/>
	<path d="M765.45,380.97c-5.65,0.31-8.18-0.85-8.85-6c-0.89-6.87-2.9-13.6-4.38-20.4c-0.28-1.3-0.47-2.63-0.56-3.95
		c-0.28-3.86,0.01-7.74,4.56-8.79c4.63-1.06,7.18,2.02,10.11,6.85c-2.4-0.51-3.51-0.73-4.62-0.98c-1.87-0.42-3.73-0.86-5.6-1.29
		c-0.11,2.05-0.73,4.24-0.22,6.13c1.54,5.76,3.46,11.42,5.36,17.08C762.44,373.18,763.85,376.68,765.45,380.97z"/>
	<path d="M957.5,372.78c-1.55,5.29-7.58,9.11-12.95,8.38c-5.17-0.71-8.03-4.11-7.54-10.37c0.45-5.68,1.61-11.35,2.98-16.89
		c0.29-1.15,2.9-1.72,4.44-2.56c-0.04,1.85,0.09,3.73-0.15,5.56c-0.71,5.31-2.16,10.6-2.2,15.9c-0.03,4.31,2.53,5.32,6.5,3.52
		c2.69-1.22,5.34-2.54,8.02-3.8C956.71,372.47,956.91,372.6,957.5,372.78z"/>
	<path d="M991.39,377.08c-1.57,1.38-3.03,3.68-4.41,3.64c-1.94-0.06-5.4-1.75-5.48-2.94c-0.48-6.86-0.82-13.86,0.13-20.63
		c0.6-4.26,3.9-4.38,6.69-0.84c3.27,4.13,2.83,10.43-0.75,14.09c-1.32,1.35-2.17,3.17-3.23,4.78c1.83,0.22,3.66,0.43,5.48,0.69
		C990.09,375.9,990.31,376.23,991.39,377.08z"/>
	<path d="M211.24,337.3c1.88-1.57,3.69-3.24,5.66-4.7c3.06-2.27,6.21-1.45,7.52,2.2c0.94,2.61,1.78,5.49,1.68,8.21
		c-0.33,8.8-1.07,17.58-1.76,26.36c-0.1,1.29-0.8,2.54-1.22,3.81c-0.4-0.08-0.8-0.16-1.21-0.24c0-8.84,0-17.68,0-26.52
		c0-1.5,0.12-3,0.03-4.49c-0.25-3.89-2.08-4.85-5.56-3.33c-1.4,0.61-3.12,0.5-4.69,0.72C211.53,338.65,211.39,337.98,211.24,337.3z"
		/>
	<path d="M370.2,478.94c-1.77,0-3.07,0.13-4.34-0.02c-5.91-0.71-6.29-0.55-5.78,5.57c0.51,6.09,1.57,12.13,2.22,18.21
		c0.12,1.09-0.63,2.28-0.97,3.42c-1.2-0.6-3.34-1.05-3.46-1.81c-1.04-6.96-5.29-13.55-2.54-20.99c0.44-1.19,0.41-2.65,0.29-3.95
		c-0.49-5.04,3.44-5.12,6.56-5.68C366.49,472.91,368.82,474.44,370.2,478.94z"/>
	<path d="M706.89,516.67c-2.92,10.18-5.55,19.61-8.41,28.96c-0.27,0.88-1.94,1.33-2.96,1.98c-0.28-1.13-0.97-2.35-0.76-3.39
		c1.81-8.95,3.66-17.9,5.83-26.76c0.36-1.48,2.35-2.57,3.58-3.84C705.13,514.7,706.09,515.78,706.89,516.67z"/>
	<path d="M443.72,476.56c-2.2-2.15-4.51-4.19-6.56-6.46c-3.64-4.02-7.26-8.07-10.58-12.35c-0.96-1.24-0.86-3.29-1.24-4.98
		c1.75,0.12,4.35-0.47,5.12,0.46c4.28,5.19,8.22,10.68,12.06,16.2c1.18,1.7,1.73,3.85,2.56,5.79
		C444.63,475.67,444.18,476.11,443.72,476.56z"/>
	<path d="M589.93,365.87c-0.41,1.71-0.51,3.45-1.26,4.84c-0.7,1.3-2.04,2.99-3.22,3.09c-1.27,0.1-3.06-1.15-3.95-2.32
		c-3.64-4.77-3.11-10.09,1.3-14.09c2.32-2.1,4.48-1.18,5.53,1.32C589.26,360.93,589.43,363.48,589.93,365.87z"/>
	<path d="M637.64,250.05c-1.06-2.26-2.6-4.42-3.09-6.8c-1.1-5.33-1.83-10.75-2.34-16.17c-0.11-1.17,1.33-2.5,2.06-3.75
		c1.19,0.95,3.28,1.77,3.42,2.86c0.98,7.18,1.55,14.41,2.19,21.64c0.05,0.55-0.48,1.15-0.74,1.73
		C638.64,249.72,638.14,249.89,637.64,250.05z"/>
	<path d="M835.69,770.52c-3.16,3.04-6.57,1.43-9.22-0.48c-3.1-2.23-5.74-5.23-8.12-8.25c-0.62-0.79,0.11-3.16,0.92-4.3
		c0.33-0.47,2.94-0.07,3.8,0.71C827.27,762.02,831.22,766.1,835.69,770.52z"/>
	<path d="M274.38,339.78c-7.09,2.84-14.07,0.01-21.04-1.07c-0.75-0.12-1.64-2.31-1.61-3.51c0.02-0.75,1.82-2.19,2.58-2.04
		c6.83,1.33,13.61,2.95,20.4,4.48C274.6,338.36,274.49,339.07,274.38,339.78z"/>
	<path d="M319.84,90.69c0.95,1.58,2.7,3.14,2.72,4.73c0.07,6.1-0.27,12.23-0.79,18.31c-0.1,1.18-1.66,2.24-2.55,3.36
		c-0.77-1.05-2.21-2.13-2.19-3.16c0.21-7.4,0.72-14.8,1.13-22.2C318.73,91.38,319.29,91.03,319.84,90.69z"/>
	<path d="M286.68,497.2c-0.44,0.54-1.2,2.08-1.71,2c-1.07-0.16-2.69-1.01-2.91-1.87c-1.69-6.74-3.18-13.53-4.48-20.35
		c-0.17-0.88,1.09-2.03,1.68-3.06c0.84,0.61,2.25,1.08,2.44,1.85C283.44,482.68,284.96,489.65,286.68,497.2z"/>
	<path d="M930.41,376.38c0.06-0.1-0.55,0.92-1.17,1.94c-0.98-0.9-2.67-1.69-2.82-2.71c-0.92-6.35-1.55-12.75-2.11-19.14
		c-0.06-0.74,0.76-2.01,1.42-2.21c0.61-0.18,1.84,0.57,2.28,1.24c0.69,1.07,1.21,2.4,1.32,3.66
		C929.75,364.44,930,369.72,930.41,376.38z"/>
	<path d="M743.71,516.7c-1-3.04-2.22-6.03-2.94-9.13c-0.75-3.2-1.43-6.52-1.32-9.77c0.06-1.82,1.79-3.58,2.77-5.37
		c0.89,1.5,2.42,2.94,2.56,4.51c0.6,6.36,0.78,12.77,1.12,19.16C745.17,516.3,744.44,516.5,743.71,516.7z"/>
	<path d="M291.34,234.26c-0.55-5.08-1.21-9.6-1.41-14.15c-0.06-1.3,1.19-2.67,1.83-4c1.23,1.07,3.23,1.95,3.54,3.24
		c0.78,3.16,0.86,6.5,1.06,9.79C296.58,232.58,294.88,234.28,291.34,234.26z"/>
	<path d="M839.33,372.65c-0.18-3.23-0.12-6.49-0.63-9.66c-0.47-2.92-1.78-5.71-2.26-8.63c-0.18-1.09,0.94-2.39,1.46-3.59
		c0.95,0.44,2.67,0.79,2.73,1.32c0.72,6.4,1.24,12.82,1.69,19.24c0.05,0.74-0.6,1.53-0.92,2.3
		C840.71,373.31,840.02,372.98,839.33,372.65z"/>
	<path d="M300.41,745.23c1.01,2.92,2.14,5.33,2.58,7.86c0.22,1.25-0.85,2.72-1.34,4.08c-1.5-0.64-3.13-1.09-4.46-1.98
		c-0.71-0.47-1.02-1.66-1.36-2.58c-0.88-2.32-1.69-4.67-2.52-7C295.65,745.49,298,745.36,300.41,745.23z"/>
	<path d="M281.23,462.82c-2.6-1.85-5.22-3.45-7.47-5.46c-0.59-0.52-0.06-2.31-0.04-3.51c1.17,0.07,2.51-0.2,3.46,0.29
		c2.02,1.05,3.89,2.42,5.69,3.84c0.85,0.68,1.38,1.76,2.06,2.66C283.9,461.24,282.89,461.84,281.23,462.82z"/>
	<path d="M299.81,204.92c-3.68,0.13-8.55-5.7-7.23-8.71c0.37-0.83,1.89-1.85,2.61-1.68c1.22,0.29,2.87,1.27,3.2,2.32
		C299.21,199.42,299.38,202.21,299.81,204.92z"/>
	<path d="M332.47,80.5c-2.47-1.93-5.08-3.72-7.34-5.87c-0.71-0.68-0.51-2.32-0.73-3.53c1.37,0.08,3.31-0.37,4,0.36
		c2.12,2.23,3.76,4.92,5.58,7.42C333.48,79.42,332.98,79.96,332.47,80.5z"/>
	<path d="M747.58,475.06c-1.27,4-6.05,6.85-8.39,5.59c-0.68-0.36-1.49-1.73-1.28-2.25c0.5-1.24,1.4-2.95,2.44-3.19
		C742.48,474.71,744.8,475.06,747.58,475.06z"/>
	<path d="M933.19,339.62c-1.9-1.24-3.82-2.45-5.61-3.84c-0.09-0.07,1.39-2.45,1.46-2.42c2.02,1.04,3.96,2.24,5.92,3.42
		C934.37,337.73,933.78,338.67,933.19,339.62z"/>
	<path d="M1018.36,537.07c-5.78-4.95-5.82-5.63-1.23-10.02C1017.53,530.3,1017.86,533.04,1018.36,537.07z"/>
	<path d="M841.14,341.86c-2.15,1.47-3.31,2.78-4.59,2.92c-0.72,0.08-2.29-1.76-2.31-2.76c-0.02-0.99,1.47-2.86,2.22-2.82
		C837.73,339.25,838.95,340.51,841.14,341.86z"/>
	<path class="st0" d="M473.42,102.12c7.51,0.45,12.22,4.8,12.95,10.65c0.1,0.78-0.37,2.15-0.95,2.42
		c-4.19,1.94-8.35,4.13-12.78,5.27c-2.24,0.58-5.35-0.34-7.34-1.67c-0.79-0.52,0.08-4.1,0.75-6.11c0.98-2.96,2.14-5.98,3.86-8.54
		C470.82,102.77,473.08,102.3,473.42,102.12z"/>
	<path class="st0" d="M512.74,234.98c0.21-7.47,3.65-12,8.02-12.31c3.24-0.23,4.91,0.91,3.45,4.38c-1.09,2.59-2.57,5.05-3.36,7.73
		c-0.85,2.87-2.44,4.74-5.25,3.6C513.99,237.72,513.07,235.4,512.74,234.98z"/>
	<path class="st0" d="M499,221.28c-2.72,1.9-4.28,3.77-5.29,3.51c-1.86-0.48-3.41-2.2-5.09-3.41c1.37-1.74,2.75-3.47,4.12-5.21
		C494.41,217.54,496.08,218.9,499,221.28z"/>
	<path class="st0" d="M978.24,512.14c-2.35,2.65-4.04,4.55-5.72,6.44c-1.64-2.22-4.33-4.3-4.64-6.69c-0.38-2.93,1.26-6.9,5.02-6.47
		C974.68,505.63,976.08,509.27,978.24,512.14z"/>
	<path class="st0" d="M741.41,745.96c0.63,4.79-4.38,16.02-8.53,17.3c-1.91,0.59-5.25-0.63-6.77-2.18c-2.55-2.6-3.17-6.18-0.49-9.45
		C728.28,748.37,735.41,745.84,741.41,745.96z"/>
	<path class="st0" d="M823.98,105.91c1.54-3.73,2.93-7.54,4.72-11.14c0.49-0.98,2.76-2.17,3.26-1.84c1.31,0.88,3.16,2.8,2.9,3.84
		c-1.09,4.44-2.69,8.79-4.51,13c-0.52,1.2-2.39,1.81-3.65,2.69c-0.62-1.56-1.28-3.1-1.85-4.68c-0.16-0.44-0.02-0.98-0.02-1.48
		C824.55,106.17,824.27,106.04,823.98,105.91z"/>
	<path class="st0" d="M607.58,120.44c-0.62,1.3-1.59,3.94-3.1,6.23c-0.63,0.97-2.73,1.98-3.54,1.61c-1.4-0.64-2.93-2.2-3.28-3.64
		c-0.48-2,0.04-4.26,0.21-6.4c0.19-2.47,0.15-5.51,3.7-5.21C604.91,113.32,607.62,114.95,607.58,120.44z"/>
	<path class="st0" d="M604.87,92.63c0-4.6,0-8.43,0-12.74C609.55,85.88,609.76,89.88,604.87,92.63z"/>
	<path class="st0" d="M694.8,630.68c3.15,1.91,6.43,3.65,9.36,5.86c0.62,0.47,0.45,3.13-0.28,3.96c-1.32,1.49-3.29,3.11-5.08,3.23
		c-1.43,0.1-3.88-1.68-4.33-3.11c-0.9-2.88-0.74-6.09-1.02-9.16C693.89,631.2,694.34,630.94,694.8,630.68z"/>
	<path class="st0" d="M256.03,609.46c0.22-0.47,0.8-1.7,1.38-2.93c1.32,0.69,3.02,1.06,3.89,2.12c5.53,6.68,5.78,8.4,1.72,13.36
		c-0.85,1.04-2.84,1.79-4.14,1.59c-0.92-0.14-1.93-2.01-2.25-3.28c-0.39-1.56-0.05-3.29-0.12-4.94
		C256.45,613.72,256.26,612.08,256.03,609.46z"/>
	<path class="st0" d="M384.95,485.51c1.28,1.61,3.65,3.24,3.61,4.82c-0.08,2.82,0.05,7.04-4.28,7.18c-4.19,0.14-4.71-3.3-4.79-6.68
		C379.43,487.72,380.84,486.23,384.95,485.51z"/>
	<path class="st0" d="M552.32,498.3c10.95,5.7,11.89,6.24,10.45,14.35c-0.38,2.13-2.54,5.76-3.5,5.64
		c-2.86-0.36-6.24-1.59-8.13-3.66C547.42,510.57,548.18,504.37,552.32,498.3z"/>
	<path class="st0" d="M402.2,618.44c2.08,0.91,4.21,1.73,6.23,2.77c1.77,0.9,3.64,1.8,5.03,3.16c0.97,0.95,1.95,3.63,1.64,3.87
		c-2.09,1.6-4.64,3.94-6.81,3.73c-2.16-0.21-4.62-2.8-5.91-4.97c-1.17-1.95-0.93-4.73-1.31-7.15
		C401.44,619.38,401.82,618.91,402.2,618.44z"/>
	<path class="st0" d="M476.62,367.61c-3.76,4.03-6.36,7.64-9.76,10.22c-3.64,2.76-10.5,1.22-11.91-3.17
		c-1.08-3.37,0.19-7.93,1.66-11.44c0.46-1.08,5.08-0.79,7.7-0.45c1.87,0.24,3.56,1.69,5.39,2.45
		C471.35,365.91,473.08,366.4,476.62,367.61z"/>
	<path class="st0" d="M829.76,510.45c-0.53-4.19,1.13-8.25,5.41-11.18c2.67-1.82,4.69-1.64,6.67,1.22
		c3.99,5.76,2.89,14.42-2.4,17.13C833.14,520.85,829.41,518.43,829.76,510.45z"/>
	<path class="st0" d="M256.81,232.28c-1.42-6.18,3.25-7.31,9.79-7.62c3.32-0.16,6.89,0.48,7.04,5.09c0.16,5.14-3.65,8.89-9.04,9.07
		C258.67,239.02,256.9,237.54,256.81,232.28z"/>
	<path class="st0" d="M431.51,365.04c-3.91,0.62-6.21-0.16-6.14-4.43c0.03-1.76-0.65-3.59-1.29-5.28c-1.23-3.24-0.05-5.84,2.63-7.17
		c1.94-0.97,4.53-0.73,6.84-0.8c0.71-0.02,1.51,0.66,2.14,1.18c3.62,2.93,6.83,6.5,5.62,11.37
		C440.08,364.85,435.35,364.97,431.51,365.04z"/>
	<path class="st0" d="M561.18,747.88c1.06-1.9,1.49-3.53,2.11-3.61c1.32-0.17,3.54,0.05,3.97,0.87c1.59,3.02,2.67,6.32,3.66,9.6
		c0.07,0.23-3.08,1.9-3.28,1.66C565.3,753.68,563.25,750.71,561.18,747.88z"/>
	<path class="st0" d="M209.1,85.12c-1.01,1.6-1.88,3.33-3.13,4.71c-0.31,0.34-1.86-0.43-2.84-0.69c1.13-1.87,2.26-3.74,3.38-5.61
		C207.38,84.05,208.24,84.59,209.1,85.12z"/>
	<path class="st0" d="M514.3,625.75c-1.44-1.83-2.72-3.09-2.56-3.31c1.34-1.86,2.92-3.56,4.56-5.17c0.06-0.06,2.19,1.6,2.08,1.81
		C517.36,621.1,516.05,622.98,514.3,625.75z"/>
	<path class="st0" d="M507.82,744.99c1.16,4.34-1.21,7.53-4.2,8.55c-2.14,0.73-5.43-1.31-7.93-2.65c-0.68-0.37-0.78-2.79-0.34-3.98
		c0.33-0.89,1.91-1.75,3-1.84C501.44,744.83,504.56,744.99,507.82,744.99z"/>
	<path class="st0" d="M448.52,220.88c3.24-0.22,5.48,0.43,5.32,4.53c-0.23,5.79-3.33,10.66-7.3,10.79c-3.66,0.11-6.25-2.7-6.26-6.82
		C440.26,223.09,442.3,220.99,448.52,220.88z"/>
	<path class="st0" d="M329.88,499.44c-4.01-1.09-5.45-2.13-4.18-5.36c1.48-3.75,2.41-7.98,7.82-7.37c2.83,0.32,4.59,1.83,2.7,4.71
		C334.36,494.26,332.01,496.78,329.88,499.44z"/>
	<path class="st0" d="M761.09,95.71c0.13-1.59,0.11-3.1,0.44-4.53c0.19-0.83,1.21-2.25,1.44-2.17c3.36,1.13,7.21,1.82,9.75,4
		c1.45,1.24,1.7,5.42,0.77,7.51c-1.23,2.75-2.34,7.44-7.01,6.13C760.97,105.1,761.42,100.04,761.09,95.71z"/>
	<path class="st0" d="M370.86,372.06c-8.96-0.82-13.17-9.53-8.74-15.54c0.55-0.74,3.69-0.83,4.13-0.19c2.68,3.87,5.13,7.94,7.1,12.2
		C373.72,369.28,371.45,371.26,370.86,372.06z"/>
	<path class="st0" d="M732.14,354.73c0.86,1.57,2.05,3.06,2.43,4.73c0.18,0.8-1.17,1.96-1.82,2.95c-1.21-1.11-2.96-2.02-3.45-3.39
		c-0.38-1.08,0.79-2.72,1.28-4.1C731.1,354.86,731.62,354.79,732.14,354.73z"/>
</g>
</svg>
